<svg width="104" height="113" viewBox="0 0 104 113" fill="none" xmlns="http://www.w3.org/2000/svg">
<path d="M16.1288 88.1279C16.1288 88.1279 10.3806 95.5851 8.51539 101.492L3.7401 99.9503C3.7401 99.9503 5.91652 95.4126 7.15049 92.2889C8.38575 89.1651 10.1298 85.0676 10.7521 84.1256L16.1288 88.1279Z" fill="#FDBCA0"/>
<path d="M5.52845 95.5277L2.61369 101.047L7.11033 102.656L9.8837 98.3735L5.52845 95.5277Z" fill="#E6E7E8"/>
<path d="M13.9328 110.967L12.7377 110.753C12.6425 110.821 12.3722 110.817 12.1007 110.693C11.7738 110.545 11.4417 110.277 11.0923 109.991C10.997 109.912 10.9001 109.835 10.8036 109.758C9.28721 108.556 1.05091 102.701 1.05091 102.701C-0.869671 105.472 0.0770644 105.83 2.00485 106.896C2.30247 107.06 2.64908 107.135 2.98179 107.066C4.16583 106.82 4.95351 107.794 5.46063 108.623C5.55355 108.776 5.68224 108.902 5.81934 109.018C9.31879 111.962 12.5921 113.268 13.9328 110.967Z" fill="#A67C52"/>
<path d="M3.81284 98.1416C3.54585 99.8146 2.56239 100.242 0.908457 102.931C0.338013 103.855 2.08855 105.28 2.90351 105.405C6.14781 105.909 6.17123 107.805 9.05176 109.84C9.56858 110.204 11.1348 111.235 11.7103 111.494C12.286 111.755 13.0039 111.805 13.52 111.441C14.1337 111.006 14.3612 109.834 14.1394 109.116C13.9152 108.397 13.4186 107.802 12.9663 107.201C11.4684 105.216 9.45156 103.507 8.88841 100.561C9.09474 100.084 9.30408 99.528 9.55245 98.8915C9.64228 98.6607 9.29275 98.6435 9.17976 98.7079C9.17976 98.7079 8.20858 99.77 7.87158 100.532C6.50848 100.217 4.82572 99.438 3.81284 98.1416Z" fill="#323232"/>
<path d="M7.45595 100.424C7.36141 100.396 7.26583 100.367 7.16957 100.336C7.26592 100.367 7.36149 100.396 7.4557 100.423C7.45578 100.423 7.45586 100.424 7.45595 100.424ZM7.05409 100.298C7.02346 100.287 6.99258 100.276 6.96186 100.265C6.96186 100.265 6.96186 100.265 6.96178 100.265C6.99258 100.276 7.02338 100.287 7.05409 100.298Z" fill="#F0F1F1"/>
<path d="M12.3941 111.687C12.2414 111.669 12.0894 111.634 11.9432 111.585C12.2402 111.151 12.9315 109.573 11.1624 107.755C8.12557 104.631 7.14743 101.211 6.96178 100.265C6.99249 100.276 7.02338 100.287 7.05401 100.298C7.09261 100.311 7.13113 100.324 7.16948 100.336C7.26574 100.367 7.36132 100.397 7.45586 100.424C7.71711 101.532 8.77992 104.669 11.4808 107.443C13.2911 109.305 12.7572 111.044 12.3941 111.687Z" fill="#7DB6DB"/>
<path d="M8.05958 104.534C8.05323 104.545 8.04774 104.557 8.04174 104.57C8.03616 104.594 8.03281 104.617 8.03324 104.639C8.03496 104.648 8.03616 104.66 8.03882 104.672C8.04173 104.684 8.04774 104.693 8.05134 104.703C8.05469 104.715 8.06129 104.726 8.06996 104.734C8.07451 104.745 8.08103 104.75 8.08901 104.755C8.09724 104.764 8.10711 104.772 8.11723 104.779C8.144 104.798 8.17617 104.807 8.20869 104.804C8.22756 104.806 8.24833 104.804 8.27149 104.796C8.27149 104.796 8.27629 104.792 8.28453 104.79L8.29491 104.783C8.32125 104.769 8.34296 104.749 8.36012 104.725C8.45955 104.567 8.58095 104.411 8.71685 104.256L8.71805 104.255C9.03257 103.898 9.43022 103.556 9.83937 103.245L9.84152 103.242C9.86374 103.228 9.88279 103.212 9.90544 103.197C9.84564 103.101 9.78816 103.003 9.73316 102.898L9.72183 102.885C9.70991 102.895 9.69284 102.907 9.67859 102.92C9.36982 103.151 9.06234 103.404 8.7878 103.67C8.49936 103.948 8.24446 104.24 8.05958 104.534Z" fill="white"/>
<path d="M10.4317 103.98C10.4486 103.999 10.4603 104.021 10.4764 104.04C10.4052 104.063 10.3335 104.084 10.2625 104.107C9.92868 104.215 9.6001 104.327 9.309 104.425L9.30874 104.429C8.76438 104.614 8.36226 104.763 8.28453 104.79C8.27629 104.792 8.27149 104.796 8.27149 104.796C8.24833 104.804 8.22756 104.806 8.20869 104.804C8.18698 104.806 8.16742 104.8 8.1464 104.792L8.13774 104.788C8.12959 104.786 8.12427 104.783 8.11723 104.779C8.10711 104.772 8.09724 104.764 8.08901 104.755C8.08103 104.75 8.0745 104.745 8.06996 104.734C8.06129 104.726 8.05469 104.715 8.05134 104.703L8.04431 104.692L8.03882 104.672C8.03616 104.66 8.03496 104.648 8.03324 104.639C8.03281 104.617 8.03616 104.594 8.04174 104.57C8.04774 104.557 8.05323 104.545 8.05958 104.534C8.08128 104.502 8.11414 104.476 8.14932 104.461C8.18458 104.449 8.39752 104.372 8.71685 104.256L8.71805 104.255C9.08138 104.126 9.57693 103.958 10.1012 103.788L10.1022 103.786C10.1531 103.771 10.2021 103.753 10.2548 103.736L10.4317 103.98Z" fill="white"/>
<path d="M8.49385 105.323C8.48682 105.336 8.48124 105.35 8.4767 105.362C8.47404 105.371 8.47163 105.377 8.47206 105.39C8.46769 105.402 8.46966 105.411 8.47043 105.423C8.46966 105.437 8.47206 105.449 8.4767 105.457C8.4779 105.468 8.48124 105.48 8.48828 105.492C8.49574 105.502 8.50587 105.516 8.51556 105.528C8.52569 105.544 8.5407 105.556 8.55777 105.565C8.60196 105.591 8.64854 105.595 8.69341 105.583C8.70431 105.579 8.72215 105.572 8.73305 105.565C9.18295 105.388 9.61406 105.242 10.0201 105.126C9.33146 105.836 9.01497 106.38 8.99326 106.419C8.94642 106.499 8.96813 106.597 9.04105 106.648C9.11149 106.704 9.21272 106.694 9.27664 106.631C9.2817 106.624 9.79106 106.1 11.1592 105.424C11.2742 105.371 11.3821 105.316 11.4882 105.268C11.4062 105.172 11.3256 105.081 11.2465 104.987C11.1699 105.024 11.0854 105.064 11.0021 105.106C10.7815 105.214 10.579 105.321 10.3999 105.422C10.2705 105.493 10.1498 105.565 10.0418 105.631C10.2302 105.419 10.4612 105.186 10.7325 104.939C10.871 104.907 11.0064 104.88 11.1348 104.854C11.0135 104.715 10.8947 104.57 10.7784 104.423C10.7028 104.487 10.6294 104.55 10.5575 104.612C10.1353 104.717 9.67781 104.846 9.20037 105.014L9.19719 105.015C8.99206 105.084 8.78907 105.162 8.57827 105.245C8.54258 105.263 8.51264 105.291 8.49385 105.323Z" fill="white"/>
<path d="M10.4317 103.98C10.3767 104.023 10.3209 104.067 10.2625 104.107C9.86707 104.409 9.48495 104.727 9.20037 105.014H9.19719C9.0244 105.188 8.88507 105.355 8.80057 105.502C8.7847 105.531 8.76204 105.551 8.73305 105.565C8.72215 105.573 8.70431 105.58 8.69341 105.583C8.64854 105.595 8.60196 105.592 8.55777 105.566C8.5407 105.556 8.52569 105.544 8.51556 105.528C8.50587 105.516 8.49574 105.502 8.48828 105.492C8.48124 105.481 8.4779 105.469 8.4767 105.458C8.47206 105.449 8.46966 105.437 8.47043 105.423C8.46966 105.411 8.46769 105.402 8.47206 105.391C8.47163 105.378 8.47404 105.371 8.4767 105.363C8.48124 105.351 8.48682 105.337 8.49385 105.324C8.64854 105.057 8.94324 104.748 9.30872 104.429L9.30898 104.426C9.55375 104.211 9.82315 103.997 10.1012 103.788L10.1022 103.786C10.1427 103.754 10.1843 103.723 10.2226 103.696C10.2328 103.707 10.246 103.722 10.2548 103.737L10.4317 103.98Z" fill="white"/>
<path d="M7.65229 103.996C7.6945 104.085 7.80294 104.121 7.89028 104.078C8.11069 103.969 8.42624 103.828 8.78778 103.671C9.11199 103.53 9.47267 103.382 9.83935 103.245L9.8415 103.242C9.86706 103.234 9.88877 103.226 9.91442 103.217C9.91056 103.212 9.90764 103.206 9.90541 103.198C9.84561 103.102 9.78813 103.003 9.73314 102.898C9.71452 102.906 9.69642 102.912 9.67857 102.92C8.74479 103.272 7.90813 103.673 7.73483 103.758C7.64483 103.796 7.60888 103.906 7.65229 103.996Z" fill="white"/>
<path d="M41.2125 72.8097L47.3039 76.7125C47.3039 76.7125 40.9817 87.6161 40.6814 91.149L35.2292 89.7206C35.2292 89.7206 37.9823 83.9209 38.8197 79.6956C39.6562 75.4719 41.2125 72.8097 41.2125 72.8097Z" fill="#FDBCA0"/>
<path d="M34.8885 25.0492L30.6674 31.9882C30.6674 31.9882 26.3212 33.4012 23.7104 33.7663C23.7104 33.7663 26.0496 42.4634 27.7522 43.9128C27.7522 43.9128 31.5494 45.953 28.7353 47.5545C25.9214 49.1553 25.8179 47.4931 25.0795 45.8495C25.0795 45.8495 24.4224 44.2536 23.9556 43.6941C23.9556 43.6941 17.3265 34.292 17.7767 31.8372C18.2268 29.3818 28.9181 25.461 34.8885 25.0492Z" fill="#FDBCA0"/>
<path d="M39.7847 21.8746L39.0074 26.6971L32.2546 25.7799L34.7538 17.4562L39.7847 21.8746Z" fill="#F8BA86"/>
<path d="M43.1678 12.0162C41.5497 13.4498 35.9972 18.0312 35.9972 18.0312C35.9972 18.0312 34.4923 19.7359 32.8314 18.582C31.6817 17.7824 30.6822 16.4526 30.1125 14.8963C29.826 14.1156 29.6493 13.2782 29.6158 12.4228C29.5412 10.5903 30.1254 8.6728 31.7126 7.04872C34.4331 4.26728 38.1471 4.68509 40.6583 5.82873C41.2211 6.08439 41.723 6.37609 42.14 6.67723C42.599 7.0084 42.955 7.349 43.1764 7.66386C44.586 9.66629 44.5517 10.7928 43.1678 12.0162Z" fill="#1A1A1A"/>
<path d="M34.0394 18.9822C33.661 18.9822 33.2518 18.8733 32.8314 18.5816C31.6818 17.782 30.6823 16.4522 30.1126 14.8959C30.7046 15.1335 31.2339 15.7607 31.6972 16.0953C31.6114 15.7547 31.4947 15.3712 31.3506 15.0486C31.4287 15.2227 31.5059 15.3961 31.5831 15.5702C31.8559 14.5853 32.2214 13.6253 32.6718 12.7073C32.7336 12.993 32.7962 13.2795 32.858 13.5652C33.2115 13.065 33.5804 12.5503 34.1063 12.2363C34.3731 12.0775 34.694 11.984 35.0046 11.984C35.3048 11.984 35.5974 12.0715 35.8239 12.2697C36.0143 12.437 36.1636 12.6798 36.4107 12.7364C36.4467 12.7442 36.4819 12.7484 36.518 12.7484C36.7136 12.7484 36.9049 12.6343 37.0705 12.5185C37.6676 12.1016 38.2115 11.6082 38.6834 11.0532C38.7452 11.5276 38.6302 12.0226 38.3677 12.4224C40.0612 11.2548 41.4854 9.69848 42.4978 7.90796C42.7449 8.14389 42.992 8.38068 43.2391 8.61747C42.9113 7.94913 42.5441 7.30054 42.14 6.67682C42.599 7.00798 42.9551 7.34858 43.1764 7.66345C43.8756 8.65694 44.2197 9.43423 44.2197 10.1154C44.2197 10.8069 43.8654 11.3989 43.1678 12.0158C41.5498 13.4494 35.9972 18.0308 35.9972 18.0308C35.9972 18.0308 35.8942 18.1466 35.7132 18.2985C35.4172 18.5455 34.9119 18.8853 34.301 18.9651C34.2161 18.9762 34.1286 18.9822 34.0394 18.9822Z" fill="#151515"/>
<path d="M29.6156 12.4225C29.6114 12.3187 29.6096 12.2149 29.6096 12.1103C29.6105 10.3738 30.2154 8.5807 31.7125 7.04842C33.2164 5.51099 35.0241 4.95076 36.7649 4.95076C38.1719 4.95076 39.5351 5.3171 40.6582 5.82843C41.0511 6.02919 41.4363 6.24539 41.8113 6.47103C40.0113 5.95283 38.1384 5.68944 36.2647 5.68944C35.9635 5.68944 35.6624 5.69631 35.3613 5.71003C36.1677 6.06522 36.9742 6.41955 37.7807 6.77473C36.8584 6.69323 35.937 6.61087 35.0147 6.5285C35.4668 6.76615 35.864 7.10847 36.166 7.52114C35.7422 7.45165 35.3175 7.38216 34.8937 7.31266C34.9812 7.73649 35.0687 8.15945 35.1562 8.58327C34.7333 8.26755 34.3112 7.95183 33.889 7.63611C33.7355 8.12942 33.5819 8.62187 33.4283 9.11519C33.4086 8.94103 33.3846 8.75829 33.2816 8.61673C33.2104 8.51978 33.0877 8.452 32.9719 8.452C32.9187 8.452 32.8664 8.46659 32.8218 8.49834C32.7394 8.55668 32.6999 8.65706 32.6648 8.75143C32.44 9.34855 32.2152 9.94653 31.9904 10.5437C31.9553 10.1198 31.9201 9.69602 31.8849 9.2722C31.2071 10.0984 30.767 11.1176 30.6323 12.178C30.6006 11.7079 30.5688 11.2377 30.5379 10.7676C30.1553 11.2729 29.8447 11.8314 29.6156 12.4225Z" fill="#313131"/>
<path d="M42.9764 9.62248C42.9764 9.62248 43.6464 10.078 43.7554 11.1059C43.806 11.6155 43.8077 11.7922 43.8498 12.4048C43.9261 13.563 43.1437 14.306 43.7983 15.278C44.4529 16.2509 45.2113 16.7511 45.2113 16.7511C45.2113 16.7511 45.3314 17.0814 44.9634 17.3825C44.5962 17.6837 43.758 17.5172 43.6422 17.6957C43.5272 17.8733 43.7357 18.612 43.7357 18.612C43.7357 18.612 43.836 19.059 43.275 19.3412C43.6456 19.5866 43.5564 20.0593 43.1574 20.2515C42.761 20.4454 42.7954 20.804 42.9395 21.3711C43.0819 21.9356 42.8932 22.6194 41.318 22.2797C39.7428 21.9399 36.9099 21.2561 35.2678 18.0655C35.2678 18.0655 33.739 17.688 33.7098 15.2025C33.6823 12.7188 35.9044 13.4017 35.8246 14.6165C35.7354 16.0193 36.734 16.7991 36.734 16.7991C36.734 16.7991 36.7915 15.8914 36.9176 13.9645C36.9176 13.9645 41.7126 12.4382 42.9764 9.62248Z" fill="#FDBCA0"/>
<path d="M30.1604 7.8891C27.884 8.48794 25.3241 4.5826 28.4062 2.11002C30.9789 0.045814 34.324 2.53213 33.5939 5.09479C33.1203 6.76434 30.8133 7.71665 30.1604 7.8891Z" fill="#333333"/>
<path d="M30.9402 8.63287L30.1603 7.88904C30.1603 7.88904 30.7926 5.19597 33.5938 5.09473L34.106 5.90205L30.9402 8.63287Z" fill="#FDBCA0"/>
<path d="M37.0093 85.4166L34.608 91.3638L39.4399 92.5006L41.9425 87.3881L37.0093 85.4166Z" fill="#E6E7E8"/>
<path d="M47.6631 100.066L46.3753 100.675C46.2767 100.755 45.9773 100.772 45.6684 100.658C45.2961 100.521 44.9117 100.249 44.5016 99.9621C44.3918 99.8832 44.2785 99.8042 44.1662 99.727C42.4005 98.5199 33.0353 92.8086 33.0353 92.8086C31.1323 96.013 32.0315 96.2292 34.2415 97.2545C34.583 97.4123 34.9708 97.4698 35.332 97.3668C36.6189 97.0031 37.5617 98.0163 38.1837 98.8914C38.3004 99.0535 39.9374 99.7167 40.1115 99.8128C45.2592 102.655 46.3633 102.709 47.6631 100.066Z" fill="#A67C52"/>
<path d="M35.6822 88.4741C35.1897 90.2158 34.1627 90.3719 32.5447 93.4648C31.9896 94.5303 34.0306 95.9622 34.9383 96.0403C38.5571 96.3423 39.4965 97.4405 42.8296 99.4609C43.4285 99.8221 45.9877 100.971 46.6423 101.214C47.2986 101.455 47.9189 100.032 47.6169 99.2576C47.3167 98.482 46.7221 97.8643 46.1747 97.2371C44.3696 95.1644 42.0112 93.4382 41.1627 90.2312C41.3514 89.6898 41.5393 89.0627 41.7649 88.3403C41.8456 88.0786 41.4595 88.0855 41.3385 88.1661C41.3385 88.1661 40.3493 89.4127 40.0362 90.2784L35.6822 88.4741Z" fill="#323232"/>
<path d="M46.1849 101.029L45.7139 100.827C45.7414 100.031 45.4488 99.0775 44.2288 97.9888C40.6358 94.7784 39.2922 91.0824 39.0134 90.0555C39.203 90.1078 39.39 90.1515 39.5711 90.1902C39.9434 91.3913 41.359 94.7681 44.5565 97.619C46.0253 98.9317 46.287 100.082 46.1849 101.029Z" fill="#7DB6DB"/>
<path d="M40.5561 94.6783C40.5501 94.6921 40.5449 94.7032 40.5406 94.7195C40.5346 94.747 40.5329 94.7701 40.5364 94.7942C40.5381 94.8062 40.5398 94.8182 40.5432 94.8311C40.5492 94.8456 40.5552 94.8551 40.5604 94.8645C40.5647 94.8791 40.575 94.8903 40.5844 94.898C40.5904 94.91 40.5973 94.916 40.6058 94.9203C40.617 94.9289 40.6264 94.9383 40.6393 94.9443C40.6693 94.9615 40.7062 94.9692 40.7414 94.9649C40.7637 94.9649 40.7877 94.9615 40.81 94.952C40.81 94.952 40.8152 94.946 40.8255 94.9435L40.8358 94.934C40.8632 94.9186 40.8864 94.8928 40.9044 94.8654C41.0005 94.6826 41.1215 94.5008 41.2613 94.3206L41.263 94.318C41.5813 93.9011 41.9923 93.4935 42.4195 93.1178L42.4213 93.1152C42.4444 93.0972 42.4659 93.0791 42.4882 93.0603C42.4135 92.9582 42.344 92.8544 42.2754 92.7446L42.2625 92.7317C42.2497 92.7437 42.2316 92.7566 42.2179 92.7711C41.8945 93.0508 41.5736 93.3545 41.2931 93.6686C40.9962 93.9971 40.7388 94.3395 40.5561 94.6783Z" fill="white"/>
<path d="M43.1299 93.8831C43.1488 93.9028 43.1642 93.9251 43.184 93.9449C43.1059 93.9758 43.0295 94.0049 42.9523 94.0367C42.592 94.1808 42.2394 94.3292 41.9271 94.4614L41.9245 94.4639C41.3411 94.7102 40.9087 94.9075 40.8255 94.9435C40.8152 94.9461 40.81 94.9521 40.81 94.9521C40.7877 94.9615 40.7637 94.965 40.7414 94.965C40.7182 94.9684 40.6942 94.9633 40.6736 94.9564L40.6633 94.953C40.6539 94.9504 40.6479 94.9478 40.6393 94.9444C40.6264 94.9384 40.617 94.9289 40.6058 94.9204C40.5973 94.9161 40.5904 94.9101 40.5844 94.8981C40.575 94.8903 40.5647 94.8792 40.5604 94.8646L40.5509 94.8534C40.5492 94.8457 40.5441 94.8389 40.5432 94.8311C40.5398 94.8183 40.5381 94.8063 40.5364 94.7942C40.5329 94.7702 40.5346 94.7471 40.5406 94.7196C40.5449 94.7033 40.5501 94.6921 40.5561 94.6784C40.5801 94.6415 40.6127 94.6098 40.6505 94.5918C40.6865 94.5763 40.9164 94.4734 41.2613 94.3207L41.263 94.3181C41.6525 94.1482 42.1862 93.9251 42.7498 93.6961L42.7516 93.6926C42.8056 93.6729 42.8605 93.6515 42.9146 93.6274L43.1299 93.8831Z" fill="white"/>
<path d="M41.0967 95.5147C41.0881 95.5293 41.0847 95.5456 41.0821 95.5593C41.0778 95.5671 41.0769 95.5782 41.0787 95.5885C41.0744 95.6022 41.0769 95.6143 41.0787 95.6263C41.0787 95.64 41.0829 95.6537 41.0898 95.6632C41.0907 95.676 41.0958 95.688 41.1044 95.7001C41.113 95.7129 41.125 95.7258 41.1361 95.7387C41.149 95.7558 41.167 95.767 41.1868 95.7781C41.2357 95.8021 41.2871 95.8021 41.3369 95.785C41.3498 95.7807 41.3678 95.7721 41.3798 95.7644C41.862 95.531 42.3252 95.3389 42.7645 95.1784C42.0601 96.0158 41.753 96.6395 41.7324 96.6824C41.6887 96.7751 41.7187 96.8814 41.8028 96.9338C41.886 96.9887 41.9966 96.9707 42.0619 96.8969C42.067 96.8866 42.5886 96.2706 44.0446 95.4178C44.1655 95.3509 44.2805 95.2805 44.3954 95.2205C44.2976 95.1218 44.2007 95.0274 44.1063 94.9296C44.024 94.9785 43.9347 95.0274 43.8455 95.0789C43.6113 95.2162 43.3968 95.3483 43.2072 95.4753C43.0691 95.5645 42.9421 95.6511 42.828 95.7352C43.0193 95.4856 43.257 95.211 43.5358 94.9176C43.6859 94.8696 43.8335 94.8284 43.9725 94.7924C43.8275 94.6474 43.6868 94.4989 43.5452 94.3445C43.4697 94.42 43.3917 94.4955 43.3187 94.5693C42.8597 94.7169 42.3664 94.8953 41.8525 95.1192L41.8482 95.1201C41.6277 95.2127 41.4098 95.3148 41.185 95.4229C41.1447 95.4444 41.1155 95.477 41.0967 95.5147Z" fill="white"/>
<path d="M43.13 93.8833C43.0708 93.9339 43.0142 93.9863 42.9524 94.0369C42.5397 94.4007 42.1425 94.779 41.8525 95.1196L41.8482 95.1205C41.6715 95.3247 41.5325 95.5203 41.4501 95.6876C41.4338 95.721 41.4107 95.745 41.3798 95.7648C41.3678 95.7725 41.3498 95.7811 41.3369 95.7854C41.2871 95.8025 41.2357 95.8025 41.1868 95.7785C41.167 95.7673 41.149 95.7562 41.1361 95.739C41.125 95.7262 41.113 95.7133 41.1044 95.7004C41.0958 95.6884 41.0907 95.6764 41.0898 95.6635C41.0829 95.6541 41.0787 95.6404 41.0787 95.6266C41.0769 95.6146 41.0744 95.6026 41.0787 95.5889C41.0769 95.5786 41.0778 95.5674 41.0821 95.5597C41.0847 95.546 41.0881 95.5297 41.0967 95.5151C41.2468 95.2088 41.5488 94.8451 41.9246 94.4641L41.9272 94.4616C42.1794 94.2059 42.4599 93.9485 42.7499 93.6963L42.7516 93.6929C42.7928 93.6551 42.8366 93.6182 42.8786 93.5839C42.8898 93.5976 42.9044 93.6122 42.9146 93.6276L43.13 93.8833Z" fill="white"/>
<path d="M40.0664 94.1154C40.1179 94.2098 40.2423 94.2415 40.3332 94.1875C40.5683 94.0519 40.9055 93.8692 41.2933 93.6684C41.6399 93.4883 42.0259 93.2978 42.4197 93.1176L42.4215 93.1151C42.4498 93.1031 42.4721 93.0936 42.5004 93.0808C42.4961 93.0747 42.4927 93.0696 42.4884 93.0602C42.4137 92.9581 42.3442 92.8543 42.2756 92.7444C42.2559 92.7539 42.2361 92.7616 42.2181 92.771C41.2152 93.2317 40.3238 93.7405 40.1385 93.8477C40.0424 93.8958 40.0115 94.0193 40.0664 94.1154Z" fill="white"/>
<path d="M37.0694 29.4593C36.6456 31.9825 34.7041 33.758 32.7342 33.4272C30.7636 33.0961 29.5101 30.783 29.9348 28.2616C30.3578 25.7392 32.2976 23.9633 34.2691 24.2945C36.2381 24.6248 37.4941 26.9378 37.0694 29.4593Z" fill="white"/>
<path d="M39.2984 39.5037C46.2469 38.1373 39.1603 31.4894 39.0659 26.3366C39.0659 26.3366 38.2946 27.409 33.6961 20.9787C28.2048 23.8065 27.4794 34.7445 26.7424 38.4094C25.3882 45.1261 23.5956 49.2127 23.5956 49.2127L36.8524 53.3698L39.2984 39.5037Z" fill="#FEE6C6"/>
<path d="M37.0694 29.4593C36.6456 31.9825 34.7041 33.758 32.7342 33.4272C30.7636 33.0961 29.5101 30.783 29.9348 28.2616C30.3578 25.7392 32.2976 23.9633 34.2691 24.2945C36.2381 24.6248 37.4941 26.9378 37.0694 29.4593Z" fill="#F2AE75"/>
<path d="M36.5135 26.697C36.5135 26.697 37.441 32.3749 38.9569 39.5418C38.9569 39.5418 47.7491 38.6217 49.1896 37.0704C49.1896 37.0704 49.2591 33.2397 50.0647 31.867C50.8694 30.4943 50.6155 33.0226 50.6155 33.0226C50.6155 33.0226 51.8947 32.5868 51.9873 33.5142C51.9873 33.5142 53.1292 33.2328 53.1704 34.2344C53.1704 34.2344 54.2283 33.9338 53.7864 35.0094C53.7864 35.0094 55.1454 34.5735 53.8362 36.775C53.8362 36.775 53.6809 37.0324 52.7363 37.8994C51.7908 38.7675 39.2203 45.959 37.4315 45.959C35.6427 45.959 30.7833 40.4657 30.3363 28.0577C30.3363 28.0577 33.0775 23.2207 36.5135 26.697Z" fill="#FDBCA0"/>
<path d="M40.8763 73.5289C40.9844 73.3616 41.101 73.1918 41.2289 73.015C43.0117 70.545 44.0515 70.1752 44.0515 70.1752C44.0515 70.1752 40.9878 68.3993 39.7978 68.1153C38.6062 67.8331 35.316 66.8078 33.7528 66.2021C32.1879 65.5956 30.6582 65.2146 30.6582 65.2146L31.7821 53.3695C31.795 53.5466 31.5942 54.5018 33.5786 55.1129C35.5613 55.724 39.7875 57.1384 44.4118 60.9541C49.0361 64.7685 51.0866 67.5602 51.2067 69.0033C51.3277 70.4455 51.0077 70.3983 49.6332 72.6984C48.898 73.9296 47.9483 75.6755 46.9685 77.4326C44.7756 74.839 42.3888 73.8798 40.8763 73.5289Z" fill="#1A1A1A"/>
<path d="M11.0183 83.7703C12.4884 81.6374 13.8861 81.4169 15.3559 78.844C16.8265 76.271 17.4877 76.1226 18.6652 71.7119C19.8417 67.3004 22.0481 61.5642 22.0481 61.5642C22.0481 61.5642 21.68 60.6086 21.1658 58.1817C20.6504 55.7557 20.0291 53.7419 22.3105 50.7554C23.7383 48.8839 23.5954 49.2124 23.5954 49.2124C24.294 49.047 27.4888 48.623 30.5215 49.45C32.8972 50.0976 35.9617 52.7593 36.8523 53.3696C35.9815 56.2017 34.0554 58.0682 33.665 59.7261C33.0765 62.2257 32.1216 66.5643 27.7829 72.8881C23.4448 79.2112 22.1944 81.4169 20.5766 82.7407C19.0242 84.0113 17.4724 86.23 15.9852 88.4211C14.5635 87.2715 11.7841 85.2614 10.6076 84.4189C10.7476 84.1812 10.8844 83.9641 11.0183 83.7703Z" fill="#333333"/>
<path d="M86.1042 3.06676C85.8219 3.78143 85.2608 4.53642 84.7469 4.6917C84.0254 4.91048 83.2755 4.73889 82.7127 5.38835C82.3344 5.82504 82.2657 6.45048 82.2932 7.02787C82.3215 7.60612 82.4279 8.18866 82.3309 8.75919C82.2923 8.9874 82.1748 9.25165 81.944 9.27567C81.666 9.30484 81.5082 8.97797 81.3941 8.7223C81.171 8.22126 80.5541 8.32422 80.0969 8.02136C79.788 7.81803 79.6627 7.76913 79.3247 7.91927C78.9747 8.07542 78.7979 7.85149 78.7164 8.22641C78.5448 9.01572 78.5045 9.90283 77.9443 10.4854C77.6414 10.8002 77.2691 11.0593 76.8607 11.2129C76.8513 11.2172 76.8418 11.2206 76.8324 11.2241C76.1366 11.478 75.7977 11.478 75.663 11.3459C75.4511 10.7994 75.2383 10.4905 75.0556 10.2769C74.6258 9.77242 74.3658 9.7913 74.6927 8.44948C74.045 8.35339 73.3672 8.46663 72.7855 8.76777C72.6414 7.32557 73.2007 5.82933 74.2543 4.83498C73.9042 4.80924 73.5482 4.87187 73.2282 5.016C73.5216 4.26187 74.1591 3.68277 74.8711 3.29927C75.5841 2.91577 76.3743 2.70558 77.1567 2.49881C76.8865 2.4053 76.6171 2.31264 76.3468 2.21912C78.1931 1.42724 80.2247 1.07206 82.2288 1.19131C81.7235 1.05576 81.219 0.920197 80.7137 0.784643C81.8865 0.737456 83.0705 0.956231 84.1498 1.41952C84.0271 1.35088 83.206 0.0802784 83.0833 0.0116434C83.6891 -0.0835886 84.7872 0.428601 85.5259 1.05404C85.9223 1.39035 86.2157 1.75841 86.274 2.08185C86.3203 2.34095 86.2491 2.69871 86.1042 3.06676Z" fill="#333333"/>
<path d="M63.342 60.2935C62.9645 62.7338 63.5693 65.0442 63.2819 67.4276C63.0529 69.3211 62.587 70.9203 61.6132 72.5383C60.7442 73.9814 59.8425 75.2469 59.3311 76.8881C58.7872 78.6392 58.7709 80.5215 58.3205 82.2905C57.9215 83.8546 57.0868 85.41 56.8886 86.9646C56.783 87.7925 57.4111 88.273 58.1763 88.7972C58.6962 89.1532 59.4032 89.5436 60.0441 89.5281C61.2821 89.4981 61.6072 87.7925 61.9616 86.8273C62.4935 85.3774 63.0383 83.9618 63.686 82.5591C65.1179 79.4585 66.3139 76.2395 67.4592 73.0265C68.1791 71.0086 68.3318 68.7917 69.1348 66.8082C69.7439 65.3033 70.6851 63.9667 71.3663 62.4953C72.2766 60.5297 73.0616 58.6708 73.4923 56.5113L63.342 60.2935Z" fill="#FDBCA0"/>
<path d="M53.1268 92.9838C52.715 93.3974 52.244 94.2467 52.5666 94.7855C52.8445 95.2497 53.476 95.5379 53.9341 95.815C54.3957 96.0939 54.9027 96.3186 55.3583 96.5932C55.8302 96.8772 56.3389 97.2495 56.8614 97.4932C59.1341 98.551 61.0584 101.025 63.8304 99.8782C64.4567 99.6191 65.1182 99.3866 65.711 99.0992C66.412 98.7603 65.9641 97.9822 65.5017 97.6227C64.6506 99.1627 61.7465 98.72 60.4785 97.977C59.4653 97.3833 58.6588 96.3247 57.7665 95.5628C57.208 95.0858 56.6195 94.6929 55.9812 94.3317C55.5822 94.106 55.028 93.9516 54.7243 93.5938L53.1268 92.9838Z" fill="#02BA92"/>
<path d="M53.1266 92.9841L53.1188 92.9763C52.8014 93.2964 52.4488 93.8712 52.4488 94.3696C52.4488 94.5198 52.4814 94.6639 52.5569 94.7909C52.8383 95.2593 53.4706 95.5476 53.9287 95.8247C54.3912 96.1044 54.8982 96.3283 55.3529 96.602C55.8239 96.886 56.3327 97.2583 56.8569 97.5028C58.7143 98.3676 60.3427 100.185 62.3992 100.186C62.8547 100.186 63.3309 100.096 63.8345 99.8879C64.4599 99.6288 65.1223 99.3972 65.7151 99.1098C65.9802 98.9819 66.0857 98.788 66.0849 98.5795C66.0849 98.2304 65.7992 97.8409 65.5075 97.6144L65.4981 97.6066L65.492 97.6178C65.0777 98.3676 64.1708 98.6456 63.2031 98.6456C62.1976 98.6456 61.1277 98.3453 60.4842 97.9687C59.4727 97.3759 58.6671 96.3172 57.7732 95.5545C57.2138 95.0774 56.6252 94.6836 55.9861 94.3224C55.5854 94.0968 55.032 93.9415 54.7326 93.5863L54.7309 93.5846L53.124 92.9712L53.1188 92.9763L53.1266 92.9841L53.1231 92.9944L54.7206 93.6035L54.724 93.5941L54.7163 93.6009C55.0226 93.9621 55.5786 94.1165 55.9758 94.3413C56.6141 94.7025 57.2009 95.0946 57.7594 95.5708C58.6508 96.3317 59.4573 97.3913 60.4731 97.9867C61.1217 98.3668 62.1933 98.6671 63.2031 98.6671C64.1743 98.6671 65.0897 98.3882 65.5109 97.6281L65.5015 97.6229L65.4946 97.6315C65.782 97.8546 66.0643 98.2424 66.0634 98.5795C66.0634 98.7803 65.9656 98.9639 65.7065 99.09C65.1146 99.3766 64.4531 99.6091 63.8259 99.8682C63.3249 100.076 62.8522 100.164 62.3992 100.164C60.3556 100.165 58.7289 98.3522 56.8663 97.4831C56.3447 97.2403 55.8359 96.8688 55.3641 96.584C54.9076 96.3086 54.4006 96.0847 53.9399 95.8058C53.48 95.5287 52.8503 95.2396 52.5758 94.7797C52.502 94.657 52.4702 94.5172 52.4702 94.3696C52.4694 93.8815 52.8194 93.3075 53.1343 92.9918L53.1266 92.9841L53.1231 92.9944L53.1266 92.9841Z" fill="white"/>
<path d="M55.1589 89.6767C54.8492 90.4171 54.1912 91.0194 53.7322 91.6688C53.4851 92.0189 52.8605 92.7515 53.0776 93.2286C53.2002 93.4997 53.5623 93.6043 53.8051 93.721C54.1199 93.8729 54.4202 94.0582 54.7042 94.2718C55.4523 94.8363 56.2476 95.2747 56.9451 95.8959C57.5912 96.4724 58.281 96.9983 58.9175 97.5843C59.4864 98.1085 60.0157 98.6859 60.7287 99.0033C62.0876 99.6091 63.9271 99.4246 65.1959 98.6696C65.6009 98.4285 66.162 97.8554 65.5074 97.5011C65.2483 97.3612 64.8982 97.4093 64.61 97.3432C64.2805 97.2669 63.9579 97.0756 63.6465 96.9563C62.9602 96.6929 62.6479 96.4964 62.3382 95.8221C62.0576 95.2113 61.9186 94.5232 61.5969 93.9261C61.2477 93.2775 60.8702 92.5911 60.8402 91.8456C60.8187 91.3196 61.1173 90.4059 60.8659 89.9366C60.6034 90.055 60.4138 90.351 60.1427 90.5003C59.7283 90.7268 59.1904 90.8195 58.7168 90.8666C58.0759 90.9301 56.596 90.9336 56.2674 90.1889L55.1589 89.6767Z" fill="#00476D"/>
<path d="M57.8537 57.3301C56.5497 56.8339 57.0567 60.6994 57.0713 61.1853C57.158 64.0019 57.2137 60.5353 56.916 63.4306C56.8294 64.2671 56.8062 65.0649 56.6329 65.8911C56.3729 67.1334 56.2022 68.3114 56.6749 69.5168C56.9169 70.1336 57.2086 70.7368 57.4419 71.3588C57.5878 71.7466 57.7457 72.3325 58.0957 72.5831C58.2801 72.7135 58.6087 72.7358 58.7863 72.6097C59.1038 72.3849 58.8215 72.0666 58.6559 71.8032C57.9009 70.6089 57.8374 69.3624 57.8666 67.9733C57.9078 65.9735 58.1738 64.0002 58.4311 62.0175C58.6087 60.6539 58.5504 59.2303 58.1026 57.9153L57.8537 57.3301Z" fill="#10608D"/>
<path d="M65.904 40.4105C65.4141 41.2594 64.7029 41.8123 64.3202 42.7288C64.0054 43.4822 63.7085 44.2993 63.5215 45.0865C63.1088 46.8259 63.2281 48.5257 63.4734 50.283C63.681 51.7665 63.7188 52.9464 63.4142 54.4274C63.1491 55.7186 62.576 56.8865 62.1745 58.0966C61.6331 59.7305 62.8317 59.5063 64.0362 59.3977C65.3094 59.283 66.5054 59.4084 67.7906 59.0794C68.8982 58.7959 69.8994 58.6564 70.9341 58.2789C72.0219 57.8823 73.0317 58.26 73.8227 57.2236C74.5305 55.8886 75.609 54.1108 74.576 53.1733C72.9228 51.673 67.6653 51.5718 66.7044 49.5237C66.1897 48.4243 65.6946 47.465 65.3995 46.2641C65.1018 45.0487 65.3635 44.0844 65.5771 42.8874L65.904 40.4105Z" fill="#1A1A1A"/>
<path d="M65.9039 40.4109L65.8944 40.4055C65.4063 41.2524 64.695 41.8055 64.3098 42.725C63.995 43.4788 63.6981 44.2964 63.5111 45.0844C63.3155 45.909 63.2391 46.7247 63.2391 47.5416C63.2391 48.4497 63.3335 49.3595 63.463 50.2848C63.5643 51.0101 63.6252 51.6627 63.6252 52.3132C63.6252 52.9925 63.5591 53.6697 63.4038 54.4256C63.1387 55.7151 62.5665 56.8826 62.165 58.0935C62.0723 58.3723 62.0303 58.5974 62.0303 58.7792C62.0294 59.062 62.1332 59.2407 62.3065 59.3459C62.4807 59.4511 62.7218 59.4844 62.9989 59.4844C63.3138 59.4844 63.675 59.4413 64.037 59.4087C65.3085 59.2941 66.5062 59.4197 67.7931 59.0901C68.8998 58.8068 69.9019 58.6673 70.9374 58.2893C71.4796 58.0917 72.003 58.0869 72.4911 58.0021C72.9793 57.9174 73.434 57.7512 73.8312 57.2305V57.2299L73.8321 57.2291C74.3297 56.2895 75.0126 55.1304 75.0126 54.1946C75.0135 53.8007 74.8908 53.4455 74.5828 53.1657C73.7523 52.4125 72.0236 52.0131 70.3832 51.544C68.7419 51.0757 67.1899 50.537 66.7146 49.5196C66.199 48.4198 65.704 47.4614 65.4106 46.2619C65.3145 45.8706 65.2767 45.5055 65.2767 45.1502C65.2767 44.4042 65.4432 43.7008 65.5873 42.8897V42.8894L65.921 40.3589L65.8944 40.4055L65.9039 40.4109L65.8927 40.4094L65.5667 42.8864L65.577 42.8878L65.5667 42.8859C65.4217 43.6963 65.2553 44.4009 65.2553 45.1502C65.2553 45.5071 65.293 45.874 65.3891 46.267C65.6842 47.4694 66.1801 48.4295 66.6949 49.5286C67.1796 50.5593 68.7359 51.0952 70.3772 51.5646C72.0184 52.0332 73.7454 52.4346 74.5682 53.1817C74.8719 53.4572 74.9912 53.8049 74.9912 54.1946C74.992 55.1205 74.3117 56.2793 73.8132 57.219L73.8227 57.224L73.8141 57.2175C73.4203 57.7332 72.9742 57.8963 72.4877 57.981C72.0013 58.0656 71.4762 58.0702 70.9305 58.2692C69.8967 58.6462 68.8955 58.7857 67.7879 59.0694C66.5053 59.3979 65.3093 59.2727 64.0353 59.3873C63.6732 59.42 63.312 59.463 62.9989 59.463C62.7235 59.4631 62.4858 59.4294 62.3177 59.3275C62.1512 59.2257 62.0517 59.0571 62.0517 58.7792C62.0517 58.6008 62.0929 58.3776 62.1847 58.1003C62.5862 56.8911 63.1585 55.7228 63.4244 54.4299C63.5797 53.6727 63.6466 52.9939 63.6466 52.3132C63.6466 51.6613 63.5857 51.0078 63.4845 50.2818C63.3549 49.357 63.2606 48.4482 63.2606 47.5416C63.2606 46.726 63.3369 45.9121 63.5317 45.0894C63.7187 44.303 64.0156 43.4864 64.3296 42.7333C64.7113 41.8198 65.4217 41.2674 65.9125 40.4162L65.9039 40.4109L65.8927 40.4094L65.9039 40.4109Z" fill="black"/>
<path d="M73.0825 54.9368C72.9864 55.8759 74.2836 56.4749 75.1329 56.7557C75.9025 57.0106 78.4823 58.1532 79.1464 58.6266C78.3356 59.2392 76.1676 58.0396 74.6757 58.0848C71.9577 58.1672 72.2151 59.0215 70.9882 58.9925C69.8386 58.9655 68.6143 58.9368 67.493 58.8604C66.6265 58.8013 65.4091 58.485 64.5863 58.7964C64.0861 60.2953 64.4018 62.2044 63.7146 63.6646C63.6829 63.6895 63.6812 63.6869 63.7095 63.6586C63.9394 63.6337 64.1676 63.5204 64.3975 63.5565C67.3265 64.0215 70.2924 64.0772 73.3501 64.4547C77.2889 64.9412 81.377 66.0522 85.4136 65.5375C86.9742 65.3376 88.443 64.6512 88.6232 62.8367C88.745 61.5987 88.3649 60.3982 87.7764 59.4184C86.3007 56.9612 85.3647 54.2965 83.4258 52.134C83.4258 52.134 73.369 52.1236 73.0825 54.9368Z" fill="#FDBCA0"/>
<path d="M70.2117 36.6262C66.8743 37.926 64.5467 41.139 64.4764 44.7018C64.4292 47.1202 65.258 48.9365 66.3518 51.0621C67.2913 52.8878 69.0149 54.256 69.8711 56.0482C70.1602 56.6541 70.1079 57.143 70.9453 57.1418C71.2764 57.1414 71.6951 56.8535 72.0365 56.7907C72.4261 56.7192 72.8181 56.7859 73.1999 56.7201C73.8236 56.6126 74.4388 56.4859 75.0634 56.3527C75.7188 56.213 82.7359 53.4911 83.2455 53.196C83.8667 52.8362 84.1893 52.8662 83.8744 52.1473C82.9169 49.9606 79.293 48.2831 80.3714 45.5558C80.7584 44.5785 81.0664 44.63 80.2093 43.9259C79.2329 43.1235 78.7148 41.832 77.6981 41.1114L70.2117 36.6262Z" fill="#333333"/>
<path d="M62.261 58.368C61.5901 59.4642 61.2195 60.7416 61.7883 61.9781C62.0774 62.6087 62.6282 63.253 63.1902 63.6365C63.3592 63.7515 63.6938 64.0157 63.8851 64.0217C64.0584 64.0277 64.3355 63.8313 64.5269 63.8072C64.9421 63.7566 65.6928 64.0372 65.7537 63.4289C65.7983 62.9836 65.4672 62.3633 65.3711 61.9412C65.2192 61.272 65.3084 60.6621 65.4749 59.9995C65.5633 59.6488 66.1338 58.7699 65.7674 58.4984C65.4835 58.2876 64.7559 58.4562 64.3776 58.4117C63.7856 58.3416 63.1971 58.2348 62.5845 58.1717L62.261 58.368Z" fill="#EFFF45"/>
<path d="M83.2189 22.4296L88.442 27.8844L97.7455 22.4296C97.7455 22.4296 99.3413 19.1866 100.053 20.0008C100.766 20.8158 100.976 20.6485 100.976 20.6485C100.976 20.6485 103.312 19.7151 103.515 20.9788V21.213C103.515 21.213 103.742 21.2808 103.765 21.4619C103.787 21.6429 103.685 21.8805 103.685 21.8805C103.685 21.8805 104.036 22.0272 103.99 22.276C103.945 22.5257 103.798 22.6612 103.798 22.6612C103.798 22.6612 103.965 22.7856 103.995 22.9667C104.025 23.1477 103.923 23.6118 103.776 23.6565C103.628 23.7019 101.377 25.1047 99.4768 24.8782C99.4768 24.8782 88.6694 34.0543 86.9707 33.4679C86.3547 33.2542 81.3615 30.7276 81.3615 30.7276L83.2189 22.4296Z" fill="#FFBC8C"/>
<path d="M81.6437 14.4018C81.104 13.7008 80.2221 15.1447 79.1625 14.8994C78.332 14.7072 77.3617 13.8827 76.5895 13.8656L75.4365 13.3208C74.1255 13.2144 68.8123 29.0665 68.8423 31.5623C68.8681 33.8 67.9484 35.8332 68.1749 38.2191C68.524 41.9064 79.5743 46.4127 80.6304 44.8831C80.5772 44.5142 84.6782 32.4297 85.3234 27.3996C85.5087 25.9548 85.8664 19.8892 81.6437 14.4018Z" fill="#FEE6C6"/>
<path d="M78.1006 23.9818C77.2083 26.1858 75.561 27.4779 73.9927 26.8422C72.4244 26.2073 72.0221 23.6086 72.9143 21.4054C73.8074 19.2005 75.5044 18.1675 77.0727 18.8024C78.641 19.4373 78.9928 21.7777 78.1006 23.9818Z" fill="#EAA978"/>
<path d="M76.8606 11.2127C76.913 10.8464 77.0562 10.4749 77.2072 10.1351C77.2536 10.0322 77.2707 9.99101 77.2664 9.99101C77.257 9.99101 77.1566 10.1686 77.0279 10.3462C76.8984 10.5229 76.7422 10.7005 76.6221 10.7005C76.5612 10.7005 76.5097 10.6559 76.4763 10.5444C76.3793 10.6902 76.3107 10.7357 76.2541 10.7357C76.2095 10.7357 76.1734 10.7074 76.1365 10.6799C76.0996 10.6525 76.0636 10.6242 76.019 10.6242C75.9624 10.6242 75.8937 10.6696 75.7976 10.8155C75.8097 10.1008 76.5947 8.27427 76.6075 7.5596C76.152 7.6188 75.6973 7.678 75.2417 7.73805C75.2211 7.10489 75.6192 6.51721 76.1305 6.14315C76.6419 5.76994 77.257 5.57262 77.861 5.3813C77.106 5.35385 76.351 5.32639 75.5969 5.29893C76.9679 4.37493 78.5379 3.74692 80.168 3.47067C79.4044 3.34712 78.64 3.22272 77.8764 3.09918C78.7301 2.80662 79.6318 2.66163 80.5343 2.66163C81.587 2.66163 82.6406 2.85982 83.6178 3.25361C83.5843 2.88984 83.5508 2.52608 83.5174 2.16231C84.0253 2.25582 84.5006 2.51921 84.8481 2.90099C84.9381 2.19491 84.8069 1.46223 84.4774 0.830785C85.2538 1.25289 85.4786 2.05678 85.4615 2.8744C85.4538 3.24246 85.5344 3.38144 85.6579 3.38144C85.7789 3.38144 85.9419 3.2476 86.1041 3.06657C85.8218 3.78124 85.2607 4.53623 84.7468 4.69151C84.0253 4.91029 83.2754 4.7387 82.7126 5.38816C82.3815 5.76994 82.288 6.29672 82.288 6.80891C82.288 6.88269 82.2897 6.95561 82.2931 7.02768C82.3128 7.43177 82.3712 7.83843 82.3712 8.24166C82.3712 8.41497 82.36 8.58741 82.3309 8.759C82.2922 8.98721 82.1747 9.25146 81.9439 9.27548C81.9319 9.27634 81.9208 9.2772 81.9096 9.2772C81.6531 9.2772 81.5029 8.96662 81.394 8.72211C81.1709 8.22107 80.5541 8.32403 80.0968 8.02117C79.9097 7.89763 79.7905 7.83157 79.6498 7.83157C79.558 7.83157 79.4585 7.85988 79.3246 7.91908C78.9746 8.07523 78.7979 7.8513 78.7164 8.22622C78.5448 9.01553 78.5044 9.90264 77.9442 10.4852C77.6414 10.8 77.269 11.0591 76.8606 11.2127Z" fill="#2E2E2E"/>
<path d="M74.9996 18.5973C78.0882 18.5338 78.5978 22.6854 77.727 24.8199C76.9051 26.8326 72.7046 25.7285 72.7046 25.7285C72.7046 25.7285 69.4015 29.0753 66.7179 28.9277C66.7179 28.9277 69.8623 36.9656 71.7051 38.231C71.7051 38.231 75.6791 40.6187 74.4797 42.4809C74.4274 42.5617 74.3021 42.5671 74.1691 42.6724C74.0799 42.7436 73.9031 43.0568 73.8071 43.1253C73.6895 43.2094 73.385 43.243 73.3 43.3041C73.1542 43.4081 73.0418 43.6203 72.9062 43.7024C72.6686 43.8458 72.4078 43.7506 72.1976 43.833C71.9325 43.9369 71.8844 44.0401 71.6579 44.0597C71.3508 44.0862 71.259 43.9025 71.0102 43.805C70.16 43.472 69.6117 42.5173 69.103 41.641C69.103 41.641 68.511 39.2854 67.9894 38.7771C67.9894 38.7771 60.4223 30.1117 60.6162 27.6228C60.8101 25.1339 69.1047 19.6251 74.9996 18.5973Z" fill="#DBA16D"/>
<path d="M74.9998 18.5969V18.6072C75.0238 18.6072 75.0469 18.6063 75.0701 18.6063C76.1503 18.6072 76.9061 19.1314 77.3925 19.9027C77.8799 20.6748 78.0969 21.6932 78.0969 22.679C78.0969 23.4588 77.9614 24.2172 77.7168 24.8152C77.3291 25.7684 76.1734 26.0198 75.0675 26.0198C74.4618 26.0198 73.8716 25.9443 73.4332 25.8688C73.2135 25.831 73.0316 25.7933 72.9055 25.765C72.7786 25.7367 72.7073 25.7178 72.7073 25.7178L72.7013 25.7161L72.697 25.7212C72.697 25.7212 72.6473 25.771 72.5563 25.8585C71.9155 26.4711 69.2035 28.9222 66.8922 28.9213C66.8339 28.9213 66.7764 28.9205 66.7189 28.917L66.7018 28.9162L66.7078 28.9316C66.7086 28.9316 67.4945 30.9409 68.5112 33.1089C69.5278 35.2774 70.7735 37.6027 71.6993 38.2394L71.7001 38.2396V38.2398C71.7001 38.2398 71.7464 38.2678 71.8288 38.3204C72.1154 38.5043 72.8326 38.9874 73.4778 39.6092C74.1229 40.231 74.6952 40.9918 74.6943 41.7273C74.6943 41.9811 74.6265 42.2321 74.4704 42.4747C74.4464 42.5117 74.4052 42.5327 74.3503 42.5573C74.2962 42.5818 74.2302 42.6099 74.1633 42.6636C74.1152 42.7016 74.0492 42.7974 73.9822 42.8933C73.9145 42.9888 73.8458 43.0844 73.8012 43.1161C73.7446 43.1564 73.6399 43.1862 73.5387 43.2125C73.4374 43.2393 73.3405 43.2622 73.2933 43.295C73.1457 43.4016 73.0325 43.6137 72.9004 43.6928C72.6687 43.834 72.4096 43.7392 72.1934 43.8226C72.0596 43.8749 71.9807 43.9273 71.9077 43.9682C71.8348 44.0091 71.7688 44.0388 71.6572 44.0486C71.6366 44.0503 71.6178 44.0512 71.5997 44.0512C71.471 44.0511 71.3844 44.0108 71.2995 43.9583C71.2145 43.9058 71.1322 43.8408 71.0146 43.7946C70.1687 43.464 69.6205 42.5118 69.1126 41.6352L69.1031 41.6406L69.1134 41.6381C69.1134 41.6379 68.965 41.0488 68.7522 40.3959C68.5386 39.7429 68.2606 39.0271 67.9964 38.769L67.9895 38.7767L67.9973 38.7697C67.9973 38.7695 67.9681 38.7367 67.914 38.6742C67.5091 38.2054 65.686 36.0767 63.9641 33.7596C63.1036 32.601 62.2679 31.3956 61.6476 30.3275C61.0274 29.2585 60.6233 28.3268 60.6241 27.7194C60.6241 27.6868 60.625 27.6542 60.6276 27.6233C60.6747 27.0064 61.2281 26.1957 62.1247 25.3146C64.8126 22.6687 70.5839 19.3776 75.0015 18.6072L74.9998 18.5969V18.6072V18.5969L74.998 18.5866C72.0484 19.1005 68.5 20.7357 65.6645 22.5529C64.2463 23.4614 63.0066 24.4163 62.1092 25.2991C61.2118 26.1828 60.655 26.9935 60.6061 27.6216C60.6035 27.6533 60.6027 27.6859 60.6027 27.7194C60.6027 28.3765 61.0642 29.3941 61.7566 30.5531C63.832 34.0317 67.981 38.7835 67.981 38.7838L67.9818 38.7841V38.7844C68.2392 39.0346 68.5189 39.7509 68.7317 40.4026C68.838 40.7286 68.9281 41.0389 68.9916 41.2675C69.056 41.4962 69.0928 41.6429 69.0928 41.6433V41.6447L69.0937 41.646C69.6025 42.5221 70.1507 43.479 71.006 43.8146C71.121 43.8594 71.2017 43.923 71.2883 43.9765C71.3741 44.0299 71.4668 44.0727 71.5997 44.0726C71.6186 44.0726 71.6383 44.0718 71.6589 44.07C71.7739 44.0601 71.8451 44.0284 71.9189 43.9869C71.9927 43.9453 72.0699 43.8942 72.2012 43.8425C72.4053 43.7612 72.6687 43.8569 72.9115 43.7112C73.0514 43.626 73.1638 43.4139 73.3062 43.3125C73.3456 43.2841 73.4426 43.2596 73.5438 43.2333C73.6459 43.2065 73.7515 43.1775 73.8132 43.1336C73.8638 43.0969 73.9316 43.0016 73.9994 42.9057C74.0663 42.81 74.1341 42.7137 74.1761 42.6805C74.2413 42.6287 74.3048 42.6014 74.3589 42.5768C74.4138 42.5521 74.4601 42.5301 74.4884 42.4863C74.6471 42.2404 74.7158 41.9849 74.7158 41.7273C74.7149 40.8737 73.9625 39.9989 73.2127 39.3356C72.462 38.6724 71.7113 38.2216 71.7113 38.2214L71.7053 38.2306L71.7121 38.2217C70.795 37.593 69.5458 35.2669 68.53 33.1004C68.0221 32.0168 67.5717 30.9727 67.2483 30.1988C67.0861 29.8127 66.9566 29.4936 66.8665 29.2714C66.7773 29.0492 66.7284 28.9239 66.7284 28.9239L66.7181 28.9273L66.7172 28.9385C66.7755 28.9419 66.8339 28.9428 66.8922 28.9428C69.5501 28.9419 72.7108 25.7358 72.7125 25.7358L72.7048 25.7281L72.7022 25.7384C72.7022 25.7392 73.8518 26.0412 75.0675 26.0412C76.1751 26.0412 77.3411 25.7907 77.7366 24.8238C77.9828 24.2215 78.1184 23.4614 78.1184 22.679C78.1184 21.6906 77.9013 20.668 77.4114 19.8915C76.9215 19.1151 76.158 18.5849 75.0701 18.5857C75.0469 18.5849 75.0229 18.5857 74.9998 18.5857H74.9989L74.998 18.5866L74.9998 18.5969Z" fill="#FEE6C6"/>
<path d="M84.9253 4.42671C86.0089 4.85054 86.3916 6.24212 86.6378 7.24419C86.7382 7.65085 86.8385 8.05494 86.7502 8.46847C86.6489 8.94034 86.5031 9.26636 86.7425 9.76139C86.9973 10.289 87.9968 11.014 87.5729 11.7244C87.3928 12.0263 86.842 12.0289 86.7193 12.3395C86.6515 12.5128 86.7939 12.6758 86.7665 12.8362C86.7296 13.0481 86.582 13.1039 86.4516 13.2378C86.7579 13.6804 86.1359 13.9318 85.9043 14.2184C85.6289 14.559 85.6906 15.1124 85.4564 15.5019C84.8756 16.4653 83.7808 15.8596 83.001 15.5233C82.6904 15.3895 81.9895 14.9785 81.6506 15.1681C81.4713 15.2685 83.6942 17.7488 81.5451 18.6454C78.8486 19.7684 75.3748 13.8906 75.0462 13.5912C75.1989 13.2566 75.3885 12.7625 75.5095 12.4193C75.633 12.071 75.6038 11.7012 75.663 11.346C75.9333 11.2902 76.1186 11.4061 76.3751 11.2559C76.6188 11.1126 76.8281 10.9273 77.0666 10.7798C77.5762 10.4649 77.6672 9.96557 77.8336 9.44309C78.0773 8.6821 78.1768 6.88299 79.462 7.23218C80.0076 7.37974 80.537 7.58651 80.9394 8.01891C81.0783 8.16819 81.2439 8.33034 81.376 8.49078C81.5125 8.65636 81.5511 8.8717 81.6789 9.03814C81.8865 9.30839 81.9835 9.12136 81.9655 8.82452C81.938 8.3801 81.7956 8.04379 81.9534 7.61396C82.1731 7.01426 82.3258 6.63248 82.3001 5.98731C82.2863 5.63984 82.4047 5.36445 82.4836 5.04272C82.578 4.65922 82.7659 4.40698 83.1889 4.3169C83.5835 4.23196 84.0185 4.14788 84.4226 4.17362C84.8027 4.19679 84.9185 4.23711 85.1235 4.55112" fill="#DBA16D"/>
<path d="M55.1539 89.4967C55.4318 88.9476 55.7416 88.4363 56.0187 87.9078C56.1945 87.5707 56.2975 86.8311 56.5961 86.6406C56.9804 86.3953 57.5973 87.2421 57.8933 87.4505C58.4526 87.8426 58.9906 88.1438 59.6701 88.2407C60.0982 88.3016 60.7965 88.2141 61.1963 88.4149C61.7428 88.6894 61.2126 89.29 61.1114 89.6958C61.0651 89.8828 61.15 90.2122 61.0822 90.3718C61.0084 90.5486 60.6421 90.7665 60.474 90.8832C59.9146 91.2709 59.1167 91.5558 58.4243 91.6013C57.0662 91.6905 56.0058 90.8874 55.2217 89.8691" fill="#EFFF45"/>
<path d="M59.8845 58.2897L59.4127 57.2939C58.9537 57.1722 58.4226 57.0589 57.9422 57.1539C57.3313 57.2753 57.7174 57.9296 57.7079 58.3914C57.6779 59.7475 57.5038 61.0692 57.4154 62.4076C57.327 63.7409 57.4017 65.1144 57.2515 66.4434C57.1374 67.4489 57.0036 68.6672 57.2086 69.6469C57.3776 70.4525 57.744 71.2487 58.1155 71.9711C58.2845 72.2997 58.396 72.618 58.7469 72.6797C59.1081 72.7432 59.3749 72.5751 59.4487 72.2087C58.8052 71.7326 58.8344 70.7211 58.7718 70.0098C58.6817 68.9803 58.4672 68.0048 58.547 66.9607C58.6654 65.419 59.3706 64.0103 59.7464 62.5243C59.9669 61.6544 60.063 60.7492 60.0046 59.8535C59.9703 59.3256 59.8742 58.8197 59.8845 58.2897Z" fill="#02BA92"/>
<path d="M62.6566 57.7922C63.0384 57.9709 62.7682 58.3496 62.6155 58.567C62.4044 58.8658 62.2337 59.1078 62.0895 59.4491C61.7635 60.2192 61.7043 60.9914 61.9651 61.7893C62.1891 62.4748 62.9432 63.1174 63.5729 63.482C64.0396 63.7514 64.6531 64.231 63.9118 64.8564C62.4859 66.0601 60.9322 67.0639 60.1532 68.8167C59.8855 69.4198 59.7431 69.9869 59.7225 70.6407C59.7053 71.2017 59.6907 71.9396 59.4188 72.4363C58.415 72.6122 58.24 69.467 58.1181 68.8424C57.9637 68.0565 57.865 67.1557 58.0349 66.3655C58.2331 65.4424 58.5531 64.569 58.735 63.6407C59.0773 61.8888 59.5046 60.0269 59.1768 58.2542C59.055 57.5972 58.9169 57.1881 59.7336 57.1649C60.2947 57.149 60.873 57.2447 61.398 57.3658C61.8416 57.4686 62.3341 57.8241 62.7562 57.7942" fill="#00476D"/>
<path d="M103.103 22.4379C103.103 22.4379 102.055 22.8403 101.895 22.9244C101.511 23.126 101.341 22.3401 101.646 22.0896C101.871 21.9051 102.947 21.3175 102.947 21.3175" fill="#DBA16D"/>
<path d="M103.103 22.438C102.952 22.5066 102.798 22.571 102.646 22.6379L102.188 22.8335L101.962 22.9339L101.907 22.9605C101.886 22.9708 101.865 22.9802 101.841 22.9862C101.796 22.9982 101.744 22.9991 101.696 22.9819C101.6 22.9476 101.543 22.8644 101.507 22.7846C101.47 22.7031 101.453 22.6156 101.448 22.5281C101.443 22.4406 101.454 22.3522 101.483 22.2673C101.511 22.184 101.563 22.1008 101.636 22.0476C101.775 21.9464 101.918 21.8632 102.063 21.7808C102.354 21.617 102.647 21.4617 102.947 21.3175L102.097 21.8383C101.959 21.9284 101.812 22.0116 101.685 22.1094C101.563 22.2003 101.526 22.3702 101.533 22.5246C101.536 22.6027 101.551 22.6816 101.581 22.752C101.611 22.8215 101.659 22.8858 101.722 22.909C101.754 22.9202 101.788 22.921 101.823 22.9124C101.84 22.9081 101.856 22.9013 101.873 22.8936L101.931 22.867C102.008 22.8326 102.086 22.8026 102.163 22.7734C102.475 22.6542 102.787 22.5418 103.103 22.438Z" fill="#9C6F5E"/>
<path d="M103.261 23.2583C103.261 23.2583 102.286 23.556 102.137 23.6187C101.78 23.7671 101.622 23.1854 101.905 23.0009C102.115 22.8637 103.116 22.4296 103.116 22.4296" fill="#DBA16D"/>
<path d="M103.261 23.2584C103.127 23.3099 102.989 23.3562 102.854 23.406L102.445 23.5484L102.242 23.6205C102.207 23.6325 102.176 23.6445 102.142 23.6582C102.105 23.6737 102.064 23.6831 102.022 23.6831C101.936 23.684 101.853 23.6351 101.805 23.5707C101.755 23.5055 101.728 23.4274 101.719 23.3494C101.711 23.2713 101.722 23.1898 101.756 23.116C101.786 23.0422 101.853 22.9779 101.919 22.9453C102.05 22.8741 102.179 22.814 102.312 22.7557C102.578 22.639 102.844 22.5292 103.116 22.4296L102.728 22.6235L102.341 22.8149C102.213 22.8809 102.082 22.9436 101.961 23.0148C101.84 23.074 101.79 23.2095 101.805 23.3408C101.811 23.4051 101.833 23.4695 101.871 23.5192C101.908 23.569 101.963 23.6007 102.022 23.6016C102.052 23.6024 102.083 23.5973 102.113 23.5853C102.147 23.5733 102.184 23.5604 102.217 23.5493C102.286 23.5261 102.355 23.5055 102.425 23.4858C102.702 23.4034 102.98 23.3262 103.261 23.2584Z" fill="#9C6F5E"/>
<path d="M103.386 23.8703C103.386 23.8703 102.488 24.0882 102.351 24.1345C102.022 24.2435 101.876 23.8171 102.137 23.6815C102.331 23.5812 103.252 23.2629 103.252 23.2629" fill="#DBA16D"/>
<path d="M103.386 23.8702C103.266 23.9097 103.144 23.944 103.023 23.9809L102.661 24.0847L102.479 24.137C102.416 24.1525 102.365 24.1757 102.292 24.1894C102.221 24.2005 102.142 24.1851 102.082 24.1413C102.021 24.0976 101.98 24.0307 101.967 23.9595C101.953 23.8874 101.965 23.8093 102.005 23.7467C102.044 23.6823 102.115 23.6429 102.172 23.6206C102.291 23.5717 102.409 23.5279 102.529 23.4876C102.768 23.4052 103.008 23.3289 103.253 23.2628C103.02 23.3615 102.785 23.4541 102.552 23.5485C102.436 23.5965 102.317 23.642 102.205 23.6935C102.148 23.7201 102.103 23.7458 102.075 23.7913C102.048 23.8351 102.039 23.8908 102.051 23.9423C102.061 23.9946 102.089 24.0427 102.131 24.0736C102.173 24.1036 102.226 24.1156 102.281 24.1087C102.332 24.1019 102.399 24.077 102.459 24.0641C102.521 24.0478 102.582 24.0341 102.643 24.0204L103.014 23.9397C103.138 23.9166 103.261 23.8908 103.386 23.8702Z" fill="#9C6F5E"/>
<path d="M102.947 21.3176C102.947 21.3176 101.626 21.9619 101.466 22.046C101.082 22.2468 100.911 21.4609 101.216 21.2113C101.442 21.0259 102.571 20.482 102.571 20.482" fill="#DBA16D"/>
<path d="M102.947 21.3174C102.629 21.4933 102.307 21.6615 101.984 21.827C101.824 21.912 101.66 21.9909 101.497 22.0733C101.456 22.0947 101.406 22.117 101.351 22.117C101.297 22.1196 101.241 22.1007 101.199 22.069C101.114 22.0038 101.07 21.9094 101.044 21.8176C101.02 21.7241 101.013 21.628 101.023 21.5319C101.033 21.4367 101.062 21.3406 101.12 21.2591C101.148 21.2188 101.188 21.1819 101.226 21.1561C101.265 21.1287 101.304 21.1046 101.343 21.0806C101.422 21.0326 101.503 20.9897 101.583 20.9476C101.907 20.7795 102.236 20.6251 102.571 20.4818L102.092 20.7426C101.932 20.8284 101.772 20.9159 101.615 21.006C101.537 21.0515 101.459 21.0969 101.383 21.1441C101.307 21.193 101.227 21.2368 101.183 21.3037C101.092 21.4418 101.083 21.6331 101.127 21.7953C101.148 21.8768 101.187 21.9566 101.248 22.0029C101.309 22.051 101.387 22.0458 101.461 22.0038C101.625 21.9257 101.788 21.8442 101.954 21.7687C102.283 21.6151 102.614 21.4616 102.947 21.3174Z" fill="#9C6F5E"/>
<path d="M100.781 20.6296C100.781 20.6296 101.954 21.2919 101.569 21.7672C101.185 22.2425 100.166 21.5407 99.8954 21.4275" fill="#DBA16D"/>
<path d="M100.781 20.6293C101.031 20.758 101.268 20.9167 101.468 21.1226C101.565 21.2273 101.657 21.3491 101.682 21.5035C101.695 21.5799 101.681 21.6639 101.643 21.7326C101.604 21.8004 101.549 21.857 101.483 21.8982C101.348 21.9788 101.188 21.9814 101.047 21.9599C100.903 21.935 100.767 21.8896 100.637 21.8321C100.507 21.7755 100.382 21.7094 100.259 21.6408C100.136 21.5704 100.019 21.4941 99.8954 21.4272C100.156 21.5344 100.401 21.6751 100.662 21.7712C100.792 21.8184 100.924 21.8613 101.059 21.8793C101.191 21.8973 101.331 21.8922 101.439 21.8244C101.492 21.7926 101.538 21.7454 101.569 21.6923C101.6 21.6382 101.61 21.5764 101.603 21.5147C101.586 21.3877 101.505 21.2719 101.419 21.1663C101.33 21.0617 101.226 20.9682 101.118 20.8798C101.011 20.7906 100.897 20.7082 100.781 20.6293Z" fill="#9C6F5E"/>
<path d="M12.3933 111.688C12.2403 111.669 12.0872 111.636 11.9431 111.585C11.9432 111.585 11.9432 111.585 11.9433 111.585C12.0894 111.634 12.2415 111.669 12.3941 111.687C12.3938 111.688 12.3936 111.688 12.3933 111.688Z" fill="#D0BBA6"/>
</svg>
