<svg width="87" height="86" viewBox="0 0 87 86" fill="none" xmlns="http://www.w3.org/2000/svg">
<g opacity="0.9">
<path fill-rule="evenodd" clip-rule="evenodd" d="M52.8514 0.11042C52.9634 0.150284 53.0732 0.203682 53.1883 0.2285C55.1031 0.64064 56.963 1.22652 58.78 1.95303C58.8665 1.98687 58.9643 1.99364 59.0568 2.01319C59.2689 2.13353 59.5389 1.99515 59.7412 2.16286C59.8487 2.21701 59.9503 2.27868 60.036 2.36442C60.0503 2.38999 60.0646 2.41631 60.0781 2.44339C60.1594 2.49002 60.2353 2.54868 60.3218 2.58253C62.3321 3.36394 64.2657 4.30254 66.1174 5.40885C66.179 5.44571 66.24 5.48482 66.3054 5.51414C66.3987 5.55627 66.4911 5.53747 66.5784 5.49009C66.8935 5.68788 67.1921 5.91125 67.5358 6.06017C67.6366 6.11807 67.7238 6.19403 67.8065 6.27375C67.8457 6.30835 67.8833 6.34671 67.9201 6.38356C67.9765 6.4332 68.0374 6.47757 68.1036 6.51517C68.148 6.53773 68.1894 6.56557 68.2292 6.59565C68.2691 6.62423 68.3067 6.65581 68.345 6.6874C68.3653 6.70094 68.3842 6.71598 68.4045 6.72952C68.4481 6.75208 68.4894 6.77765 68.5323 6.80172C68.5759 6.82352 68.6173 6.8506 68.6564 6.88068C68.6955 6.91002 68.7316 6.94311 68.767 6.97695C68.785 6.9935 68.8016 7.01155 68.8196 7.02734C68.8565 7.05893 68.8918 7.09202 68.9287 7.1236C68.9482 7.13715 68.967 7.15219 68.9873 7.16573C69.0309 7.18904 69.0723 7.21386 69.1152 7.23792C69.1596 7.26049 69.2009 7.28757 69.24 7.31765C69.2799 7.34698 69.3182 7.37857 69.3558 7.41016C69.3762 7.42369 69.3957 7.43873 69.416 7.45227C69.4596 7.47559 69.5017 7.5004 69.5446 7.52448C69.589 7.54704 69.6303 7.5741 69.6695 7.60419C69.7086 7.63352 69.7447 7.66661 69.78 7.70045C69.7981 7.717 69.8146 7.73431 69.8327 7.7501C69.8695 7.78094 69.9049 7.81327 69.941 7.84411C69.9417 7.84261 69.9981 7.88698 69.9989 7.88548C70.041 7.90804 70.0816 7.9321 70.123 7.95616C70.1666 7.97723 70.2065 8.00355 70.2433 8.03439C70.2817 8.06221 70.317 8.0938 70.3501 8.12764C70.3508 8.12614 70.3997 8.17803 70.4005 8.17652C70.4351 8.20736 70.4674 8.24045 70.4983 8.27429C70.4998 8.27354 70.5464 8.32468 70.5471 8.32318C70.581 8.35326 70.6133 8.3856 70.6464 8.41719C70.6479 8.41569 70.6991 8.46156 70.7006 8.46006C70.7607 8.49842 70.8239 8.53001 70.8878 8.56235C70.9337 8.58642 70.9758 8.61499 71.0157 8.64733C71.0593 8.68043 71.0992 8.71577 71.139 8.75262C71.1608 8.77068 71.1812 8.79022 71.203 8.80827C71.2496 8.84588 71.2932 8.88424 71.3383 8.9241C71.3632 8.94366 71.385 8.96471 71.4098 8.98427C72.2732 9.56262 72.8696 10.4418 73.7315 11.0202C74.807 12.1716 75.8922 13.3133 76.9098 14.5173C77.5318 15.3281 78.1507 16.1426 78.7719 16.9541C78.9419 17.2211 79.1149 17.4858 79.2931 17.7468C79.3413 17.8175 79.3819 17.8934 79.4202 17.9687C79.4481 18.013 79.4736 18.0589 79.5 18.104C79.5293 18.1439 79.5571 18.186 79.5849 18.2266C79.6143 18.2657 79.6398 18.3071 79.6632 18.3492C79.688 18.3891 79.7098 18.4312 79.7316 18.4726C79.7579 18.5109 79.7827 18.5508 79.8098 18.5891C79.8407 18.6245 79.8692 18.6621 79.8971 18.7004C79.9264 18.7396 79.9512 18.7809 79.9753 18.823C80.0031 18.8652 80.0287 18.908 80.0565 18.9509C80.0903 18.9922 80.1219 19.0344 80.155 19.0772C80.1934 19.1209 80.2265 19.166 80.2596 19.2134C80.2964 19.2637 80.328 19.3164 80.3581 19.3705C81.1711 20.6754 81.8698 22.042 82.5835 23.401C83.0521 24.5344 83.6274 25.6226 84.0215 26.7868C84.1764 27.1636 84.2945 27.554 84.4329 27.9368C84.5058 28.2136 84.6239 28.4745 84.7232 28.7423C84.7645 28.8829 84.7796 29.0303 84.824 29.1709C84.8435 29.2221 84.8593 29.2762 84.8744 29.3296C84.9022 29.4334 84.9285 29.538 84.9676 29.6387C84.9894 29.6876 85.0067 29.738 85.0225 29.7892C85.0526 29.8914 85.0819 29.9945 85.121 30.0938C85.1428 30.1449 85.1594 30.1968 85.1729 30.2494C85.2015 30.3848 85.2211 30.5217 85.2692 30.6526C85.2903 30.706 85.3075 30.7609 85.3233 30.8165C85.3564 30.9301 85.3933 31.0414 85.4339 31.1527C85.4557 31.2121 85.4708 31.2715 85.4843 31.3332C85.5136 31.4934 85.5595 31.6491 85.6204 31.8017C85.6475 31.8702 85.6685 31.9386 85.6889 32.0093C86.2115 34.0332 86.5327 36.0924 86.8019 38.1606C86.8719 38.8352 86.8523 39.5166 86.9862 40.1852C86.9794 42.4851 87.081 44.788 86.8185 47.0803C86.6312 48.3371 86.5086 49.6051 86.2289 50.8475C86.0972 51.2687 86.0055 51.7004 85.9243 52.1343C85.8836 52.2953 85.8288 52.454 85.7957 52.6179C85.7836 52.6788 85.7663 52.739 85.746 52.7984C85.6919 52.9383 85.652 53.0835 85.6294 53.2331C85.6197 53.2925 85.6031 53.3512 85.5843 53.4084C85.5309 53.5528 85.4896 53.7002 85.4535 53.8498C85.4399 53.9153 85.4219 53.9777 85.4031 54.0409C85.1481 55.0156 84.8164 55.9647 84.4645 56.9078C83.7537 58.7294 83.0152 60.5374 82.0345 62.2356C81.5562 63.026 81.1124 63.8383 80.6183 64.6189C80.5491 64.7197 80.4769 64.819 80.4137 64.9243C80.3852 64.9754 80.3521 65.0243 80.3175 65.0717C80.2505 65.1642 80.1859 65.259 80.1264 65.3582C80.0994 65.4079 80.067 65.4545 80.0332 65.5004C79.9678 65.5921 79.9031 65.6846 79.8452 65.7809C79.8173 65.8305 79.785 65.8772 79.7511 65.9223C79.6842 66.0133 79.6188 66.1051 79.5594 66.2013C79.53 66.251 79.4969 66.2976 79.4616 66.3427C79.4277 66.3893 79.3901 66.4337 79.3525 66.4781C79.3345 66.5014 79.3149 66.5232 79.2969 66.5465C79.2239 66.6413 79.16 66.7421 79.0984 66.8459C79.0675 66.9023 79.0322 66.9549 78.9946 67.0076C77.8168 68.5975 76.5608 70.1212 75.1837 71.5434C74.3655 72.2985 73.6593 73.1739 72.765 73.8478C72.5048 74.0441 72.483 74.3253 72.4078 74.5953C72.3048 74.7277 72.1716 74.666 72.0453 74.6532C71.4 74.8164 71.0563 75.3963 70.5404 75.737C69.7702 76.2883 69.0362 76.8892 68.2586 77.4299C68.1277 77.5149 67.9923 77.5924 67.866 77.6841C67.8178 77.7217 67.7659 77.7541 67.714 77.7857C67.611 77.8488 67.5095 77.9143 67.4125 77.9857C67.3636 78.0233 67.3124 78.0564 67.2605 78.0888C67.156 78.1557 67.0537 78.2256 66.9522 78.2978C66.9003 78.337 66.8454 78.37 66.789 78.4009C65.912 78.9206 65.0517 79.4651 64.1492 79.9389C63.3437 80.3202 62.5593 80.7451 61.7545 81.1257C61.7019 81.1558 61.6462 81.1806 61.5906 81.2046C61.5116 81.2407 61.4304 81.2738 61.3514 81.3099C61.3018 81.3378 61.2499 81.3611 61.1987 81.3844C61.122 81.4228 61.0438 81.4596 60.9663 81.4972C60.9129 81.5235 60.8588 81.5446 60.8032 81.5641C60.6618 81.6108 60.5226 81.6619 60.3903 81.7296C60.3376 81.7589 60.2835 81.7838 60.2286 81.8086C60.1473 81.8477 60.0654 81.8838 59.9834 81.9221C59.9292 81.9492 59.8728 81.971 59.8157 81.9913C59.6419 82.0455 59.4742 82.1139 59.3125 82.1989C59.2561 82.2282 59.1974 82.2523 59.1365 82.2734C58.8214 82.3741 58.5033 82.4644 58.2054 82.6095C58.1498 82.6381 58.0911 82.6614 58.0325 82.6817C57.9166 82.7193 57.7986 82.7532 57.685 82.7976C57.6286 82.8231 57.5707 82.8434 57.512 82.863C57.1563 82.9736 56.8021 83.0879 56.4516 83.215C56.3922 83.2398 56.332 83.2593 56.2711 83.2781C56.147 83.3165 56.0236 83.3564 55.9011 83.4015C55.8379 83.4271 55.7732 83.4466 55.707 83.4647C54.7007 83.7617 53.6809 84.0039 52.6648 84.2596C52.4445 84.319 52.2136 84.3205 51.9925 84.3762C51.9331 84.3957 51.8721 84.4108 51.8112 84.4236C51.6014 84.4634 51.3833 84.4582 51.1787 84.5356C51.1178 84.5582 51.0554 84.574 50.9914 84.5875C50.7207 84.6214 50.4477 84.6349 50.1882 84.7364C50.1115 84.7605 50.0356 84.7748 49.9558 84.7838C47.5777 85.1268 45.1914 85.2471 42.7892 85.2501C40.4773 85.2524 38.2023 84.9696 35.9272 84.6402C35.8475 84.6334 35.7685 84.6176 35.6918 84.5973C35.2263 84.4589 34.7449 84.386 34.2681 84.2972C33.6995 84.1205 33.1061 84.0453 32.5308 83.8964C32.4654 83.8821 32.4022 83.8603 32.3398 83.8377C32.0427 83.7136 31.7336 83.6264 31.4162 83.5692C31.3515 83.5557 31.2891 83.5361 31.2274 83.5143C30.9168 83.3864 30.5852 83.3338 30.2618 83.2518C28.8336 82.7855 27.4129 82.3004 26.035 81.6995C24.9137 81.2046 23.7863 80.7196 22.686 80.1765C22.6266 80.1487 22.5694 80.1164 22.513 80.0833C22.428 80.0367 22.3438 79.9893 22.2596 79.9426C22.2024 79.9133 22.149 79.8795 22.0964 79.8434C21.8685 79.6749 21.6135 79.5538 21.3608 79.4297C21.3044 79.4042 21.251 79.3733 21.1976 79.3425C21.1172 79.2989 21.0367 79.2545 20.9562 79.2116C20.9021 79.1838 20.8509 79.1515 20.8005 79.1169C20.6554 79.0108 20.5012 78.9206 20.3395 78.8424C20.2854 78.8168 20.2335 78.7874 20.1831 78.7574C20.1041 78.7145 20.0259 78.6724 19.9469 78.6303C19.892 78.6032 19.8409 78.5708 19.7912 78.5363C19.6641 78.4483 19.5303 78.3715 19.3994 78.2903C18.7361 77.8865 18.0923 77.454 17.438 77.0358C16.5723 76.3913 15.6615 75.8047 14.835 75.1067C14.7801 75.0722 14.729 75.0338 14.6786 74.9939C14.6267 74.9556 14.5793 74.9127 14.5327 74.8698C14.5094 74.8488 14.4875 74.8262 14.4635 74.8052C14.3537 74.6976 14.2394 74.5946 14.1092 74.5111C14.0574 74.4795 14.0085 74.4434 13.9603 74.4058C13.9122 74.3697 13.8671 74.3298 13.8227 74.2885C13.8009 74.2682 13.7791 74.2471 13.7565 74.2268C13.7114 74.1885 13.6678 74.1463 13.6249 74.1042C13.6023 74.0839 13.5813 74.0629 13.5595 74.0425C13.4106 73.8914 13.2564 73.7477 13.0744 73.6357C13.0202 73.6026 12.9698 73.5657 12.9202 73.5266C12.8435 73.4672 12.7713 73.4025 12.7013 73.3363C11.668 72.315 10.6459 71.2839 9.61479 70.2603C9.25529 69.9317 8.98605 69.524 8.6604 69.1645C8.61226 69.1209 8.56789 69.0728 8.52352 69.0246C8.47689 68.978 8.43477 68.9276 8.39416 68.8765C7.78046 68.0672 7.13517 67.2813 6.55757 66.445C6.04765 65.7726 5.6295 65.0394 5.16847 64.3354C5.10379 64.2324 5.04964 64.1233 4.99399 64.015C4.92931 63.8902 4.85786 63.7683 4.77212 63.6555C4.73903 63.6126 4.7097 63.5668 4.68262 63.5201C4.64201 63.4525 4.60365 63.3833 4.56078 63.3171C4.52919 63.2772 4.49911 63.2344 4.46978 63.1922C4.43895 63.1501 4.41337 63.1057 4.38931 63.0591C4.35246 62.9892 4.31711 62.9185 4.278 62.8485C4.24717 62.8027 4.22009 62.7553 4.19302 62.7079C4.14714 62.6379 4.10201 62.5688 4.05388 62.5011C4.02079 62.4574 3.99221 62.4101 3.96589 62.3619C3.92753 62.292 3.89293 62.2198 3.85533 62.1491C3.82675 62.1047 3.80118 62.0588 3.77561 62.013C3.72296 61.9212 3.66279 61.834 3.59962 61.749C3.56578 61.7039 3.53645 61.6572 3.51013 61.6076C3.45522 61.5053 3.40107 61.403 3.34391 61.3015C3.28074 61.1902 3.21681 61.0796 3.15514 60.9676C2.23459 59.24 1.44415 57.4576 0.887607 55.5781C0.498779 54.4282 0.231791 53.2459 0.0317363 52.0509C-0.0765639 51.4033 0.0798667 51.298 0.694319 51.544C0.746965 51.3823 0.672506 51.2183 0.702589 51.0566C0.713871 50.9235 0.74245 50.7949 0.822923 50.6851C0.866544 50.6399 0.919948 50.6084 0.979362 50.5888C1.03802 50.5828 1.09593 50.5896 1.15159 50.6106C1.21852 50.6587 1.2644 50.7264 1.30576 50.7964C1.33359 50.8362 1.36066 50.8776 1.38849 50.9182C1.42008 50.9528 1.45016 50.9904 1.481 51.0258C1.4825 51.0243 1.52913 51.0777 1.53064 51.0762C1.56523 51.1077 1.59832 51.1416 1.63066 51.1754C1.63217 51.1747 1.6803 51.2266 1.6818 51.2251C1.7179 51.2574 1.7525 51.292 1.78635 51.3266C1.8044 51.3439 1.82094 51.3619 1.83899 51.3792C1.87585 51.4146 1.90894 51.4529 1.94052 51.4936C1.97286 51.5349 2.0022 51.5786 2.03077 51.6229C2.09245 51.7147 2.16314 51.7982 2.24211 51.8764C2.28798 51.917 2.3301 51.9599 2.37222 52.0042C2.85581 52.6548 3.45447 53.2015 3.9907 53.804C4.59237 54.6267 5.39861 55.2555 6.08075 56.0016C6.14618 56.0647 6.20785 56.1324 6.27027 56.1986C6.31239 56.237 6.35225 56.2791 6.39211 56.3204C6.41166 56.3392 6.43122 56.3596 6.45078 56.3784C6.52899 56.4521 6.61097 56.5205 6.70122 56.5792C6.74634 56.6055 6.78846 56.6356 6.82907 56.6671C6.86968 56.698 6.90804 56.7318 6.94414 56.7672C6.96219 56.7845 6.97948 56.8033 6.99753 56.8198C7.03363 56.8537 7.06823 56.8898 7.10208 56.9259C7.11937 56.9424 7.13592 56.9612 7.15322 56.9785C7.18857 57.0109 7.22241 57.047 7.25551 57.0816C7.27355 57.0988 7.2901 57.1169 7.30739 57.1334C7.34349 57.1665 7.37809 57.2019 7.41194 57.2365C7.42999 57.2538 7.44728 57.2718 7.46533 57.2891C7.50294 57.3222 7.53828 57.3583 7.57438 57.3937C7.59394 57.411 7.61124 57.429 7.63079 57.4463C7.67065 57.4794 7.70825 57.5148 7.74736 57.5493C7.76767 57.5659 7.78722 57.5832 7.80753 57.5997C7.87071 57.6464 7.93463 57.6922 8.00082 57.7351C8.04669 57.7614 8.08956 57.7923 8.13093 57.8246C8.17229 57.8554 8.2114 57.8908 8.24826 57.9269C8.26706 57.9442 8.2851 57.963 8.30391 57.9803C8.34076 58.0149 8.3761 58.0517 8.41145 58.0886C8.43025 58.1059 8.44756 58.1247 8.46636 58.142C8.50547 58.1751 8.54307 58.2097 8.58293 58.2428C8.6055 58.2571 8.6258 58.2721 8.64836 58.2864C8.72206 58.3263 8.79577 58.3639 8.86947 58.406C8.92287 58.4383 8.97176 58.4752 9.01914 58.515C9.75017 59.155 10.5632 59.6823 11.3596 60.232C12.232 60.8412 13.1195 61.4263 14.0686 61.9122C14.1484 61.9536 14.2258 62.0002 14.3033 62.0446C14.3537 62.0686 14.4018 62.098 14.4484 62.128C14.4936 62.1566 14.5364 62.1897 14.577 62.2243C14.5966 62.2408 14.6161 62.2589 14.6365 62.2747C14.6981 62.3213 14.7628 62.3627 14.8312 62.3995C14.8786 62.4206 14.9237 62.4454 14.9696 62.471C15.0178 62.492 15.0644 62.5161 15.111 62.5402C15.1599 62.5612 15.2065 62.5868 15.2532 62.6124C15.3013 62.6334 15.3479 62.6583 15.3953 62.6823C15.4427 62.7034 15.4886 62.7282 15.5344 62.753C15.5811 62.7741 15.6262 62.7981 15.6713 62.8215C15.7165 62.8418 15.7601 62.8666 15.8029 62.8914C15.8669 62.9252 15.9323 62.9576 15.9985 62.9862C16.0436 63.002 16.0872 63.0223 16.1301 63.0426C16.197 63.0681 16.2655 63.0892 16.3347 63.1072C16.382 63.1185 16.4279 63.1351 16.473 63.1546C16.54 63.1847 16.6054 63.2186 16.6723 63.2494C16.7197 63.2682 16.7649 63.2893 16.81 63.3111C16.9062 63.3524 17.007 63.378 17.1093 63.4028C17.1657 63.4156 17.2206 63.4329 17.2748 63.4517C17.3943 63.4893 17.5162 63.5171 17.6388 63.5472C17.7095 63.563 17.7764 63.5841 17.8449 63.6081C22.6409 65.2966 27.6107 65.7538 32.6331 65.4515C39.5011 65.0386 45.8111 62.8997 51.4104 58.8226C51.7217 58.5962 52.0459 58.3902 52.358 58.1668C54.1555 56.7559 55.8702 55.2517 57.4052 53.5543C57.4383 53.5039 57.4767 53.4558 57.5143 53.4091C57.5489 53.364 57.588 53.3211 57.6271 53.2798C57.6459 53.2602 57.6669 53.2407 57.685 53.2211C57.7211 53.1827 57.761 53.1459 57.8001 53.1105C57.8181 53.0925 57.8384 53.0752 57.8565 53.0564C57.8911 53.0203 57.9287 52.9857 57.9655 52.9504C57.9828 52.9331 58.0016 52.9158 58.0189 52.8977C58.0528 52.8609 58.0896 52.8263 58.125 52.7917C58.1423 52.7729 58.1611 52.7563 58.1784 52.7375C58.2122 52.6992 58.2483 52.6638 58.2844 52.6277C58.3017 52.6082 58.3205 52.5901 58.3378 52.5713C58.3709 52.5307 58.407 52.4931 58.4416 52.454C58.4582 52.4337 58.4754 52.4141 58.4912 52.3938C58.5386 52.3306 58.5845 52.2667 58.6274 52.2013C58.6537 52.1561 58.6838 52.114 58.7154 52.0727C58.7454 52.0321 58.78 51.9937 58.8154 51.9576C58.8319 51.9396 58.8507 51.923 58.8673 51.905C58.9004 51.8696 58.9357 51.8358 58.9711 51.8034C58.9696 51.8027 59.0237 51.7545 59.0222 51.7538C59.053 51.7192 59.0869 51.6868 59.1192 51.6538C59.1177 51.653 59.1651 51.6019 59.1636 51.6011C59.2035 51.5424 59.2358 51.48 59.2674 51.4169C59.2899 51.3725 59.3178 51.3319 59.3486 51.2928C59.3802 51.2514 59.4148 51.213 59.4494 51.1754C59.4667 51.1551 59.4855 51.1363 59.5028 51.116C59.5366 51.0739 59.5727 51.0333 59.6081 50.9912C59.6246 50.9679 59.6427 50.9468 59.6592 50.9235C59.748 50.8047 59.8172 50.6723 59.8969 50.5474C60.5309 49.672 61.1626 48.7966 61.6944 47.8527C62.2772 46.9668 62.7157 46.0033 63.194 45.0632C63.2188 45.0098 63.2497 44.9579 63.2805 44.9083C63.3219 44.8376 63.367 44.7669 63.4069 44.6955C63.4294 44.6496 63.455 44.606 63.4821 44.5624C63.5174 44.4992 63.552 44.4345 63.5836 44.3683C63.6009 44.3239 63.6235 44.2826 63.6483 44.242C63.6799 44.1788 63.7099 44.1149 63.7378 44.0502C63.7536 44.0051 63.7724 43.9622 63.7927 43.9193C63.8167 43.8509 63.837 43.7824 63.8551 43.7125C63.8656 43.6636 63.8814 43.617 63.8995 43.5711C63.9273 43.5019 63.9611 43.435 63.9965 43.3695C64.0183 43.3244 64.0439 43.2816 64.0694 43.2394C64.1048 43.1733 64.1379 43.1071 64.168 43.0386C64.1853 42.9912 64.2063 42.9454 64.2259 42.8987C64.2507 42.8265 64.2733 42.7536 64.2951 42.6806C64.3094 42.6295 64.3289 42.5814 64.3515 42.5347C64.3846 42.464 64.4184 42.3933 64.45 42.3219C64.4688 42.273 64.4899 42.2249 64.5102 42.1767C64.5357 42.103 64.5598 42.0278 64.5824 41.9526C64.5967 41.9015 64.6155 41.8518 64.6365 41.8037C64.6771 41.7059 64.7065 41.6044 64.7343 41.5029C64.7478 41.451 64.7666 41.4013 64.7869 41.3517C64.8125 41.2765 64.8373 41.2005 64.8584 41.1238C64.8712 41.0712 64.8885 41.0208 64.908 40.9711C64.9471 40.8726 64.981 40.7726 65.0065 40.6688C65.0186 40.6169 65.0351 40.5658 65.0539 40.5154C65.0908 40.4146 65.1239 40.3131 65.1562 40.21C65.172 40.1574 65.1916 40.1063 65.2126 40.0559C65.2532 39.9513 65.2826 39.8438 65.3111 39.7355C65.3254 39.6768 65.3435 39.6204 65.3615 39.5633C65.4059 39.4113 65.4224 39.2534 65.4578 39.0992C65.6729 38.3562 65.8767 37.6116 66.0098 36.8497C66.0662 36.6467 66.1038 36.4406 66.1377 36.233C66.1941 35.9954 66.2467 35.7562 66.2603 35.511C66.2648 35.4388 66.2768 35.3689 66.2904 35.2982C66.3656 35.0192 66.3896 34.7319 66.4302 34.4468C66.5423 34.0888 66.5265 33.7173 66.5385 33.3495C66.5453 33.2345 66.5649 33.1224 66.5912 33.0111C66.7348 32.5215 66.6438 32.0176 66.6762 31.5212C66.6762 31.4407 66.6844 31.3618 66.698 31.2821C66.7078 31.2008 66.7266 31.1219 66.7484 31.0436C66.8364 29.9764 66.877 28.9107 66.7145 27.8473C66.6363 26.8267 66.5949 25.8024 66.4596 24.7871C66.3783 24.4967 66.4137 24.1891 66.3272 23.8996C66.3077 23.8327 66.2941 23.7635 66.2828 23.6935C66.2512 23.4634 66.2633 23.2265 66.1896 23.0016C66.1708 22.9407 66.158 22.8775 66.1467 22.8143C66.1226 22.6323 66.1114 22.4473 66.0534 22.2706C66.0339 22.2134 66.0211 22.1548 66.0091 22.0969C65.9858 21.9532 65.9609 21.8096 65.912 21.6712C65.8925 21.617 65.879 21.5614 65.8692 21.5042C65.8459 21.338 65.8459 21.168 65.7872 21.0078C65.7677 20.9552 65.7526 20.9018 65.7391 20.8476C65.7105 20.7138 65.6939 20.5776 65.6488 20.4468C65.6293 20.3964 65.6135 20.3438 65.5984 20.2911C65.5699 20.1866 65.5413 20.082 65.5022 19.9805C65.4804 19.9301 65.4646 19.8782 65.451 19.8256C65.4217 19.6932 65.4051 19.5586 65.3593 19.43C65.339 19.3788 65.3232 19.3262 65.3089 19.2735C65.275 19.1419 65.2397 19.0103 65.19 18.8832C65.1524 18.7809 65.1194 18.6771 65.081 18.5756C65.0592 18.5267 65.0426 18.4756 65.0276 18.4237C64.999 18.3229 64.9742 18.2206 64.9359 18.1228C64.9148 18.0755 64.8982 18.0258 64.8824 17.9762C64.8546 17.8769 64.8276 17.7761 64.7862 17.6806C64.7606 17.6325 64.738 17.5836 64.7155 17.5347C64.6666 17.4332 64.6162 17.3324 64.5718 17.2279C64.5079 17.0601 64.4139 16.9075 64.3297 16.7495C64.2921 16.6661 64.2688 16.5788 64.2515 16.4901C64.2169 16.2915 64.1612 16.0975 64.0935 15.908C64.0725 15.8591 64.0552 15.8079 64.0379 15.7575C64.0093 15.6868 63.9822 15.6146 63.9506 15.5454C63.9266 15.5026 63.9062 15.4575 63.8874 15.4123C63.8574 15.3469 63.828 15.2807 63.7934 15.2168C63.7686 15.1754 63.7468 15.1326 63.7257 15.0889C63.6934 15.0235 63.6618 14.9581 63.6287 14.8926C63.6062 14.849 63.5889 14.8031 63.5738 14.7565C63.5513 14.6866 63.5309 14.6166 63.5061 14.5474C63.4858 14.5031 63.4693 14.4572 63.452 14.4113C63.4219 14.3429 63.3918 14.2752 63.358 14.2082C63.3316 14.1639 63.3091 14.118 63.2873 14.0721C63.2617 14.0255 63.2399 13.9789 63.2166 13.9315C63.1903 13.8856 63.1677 13.8382 63.1451 13.7901C63.1196 13.7435 63.097 13.6953 63.0737 13.6479C63.0474 13.6013 63.0248 13.5539 63.003 13.5058C62.9782 13.4599 62.9556 13.4118 62.9323 13.3644C62.906 13.3185 62.8834 13.2704 62.8608 13.2223C62.824 13.1493 62.7871 13.0771 62.7458 13.0064C62.7142 12.9575 62.6879 12.9064 62.6638 12.8545C62.6224 12.7424 62.5984 12.6266 62.5653 12.513L62.5713 12.5213C62.4344 12.4702 62.4668 12.3258 62.4088 12.231L62.4156 12.2393C62.2953 12.1806 62.3261 12.0377 62.2547 11.952L62.2577 11.9565C62.1554 11.8911 62.187 11.7519 62.1027 11.676L62.0997 11.6715C61.9553 11.5481 61.8997 11.3729 61.8245 11.2082C61.8117 11.1623 61.8087 11.1096 61.7839 11.0721C61.1664 10.1545 60.5113 9.26555 59.8044 8.41418C59.775 8.37959 59.7284 8.35854 59.6901 8.33146C59.6592 8.32619 59.6284 8.32093 59.5976 8.31641C59.4419 8.20887 59.3366 8.05018 59.1967 7.92533C59.1493 7.88322 59.1049 7.83733 59.0621 7.79071C59.0162 7.74483 58.9748 7.69519 58.935 7.64405C58.671 7.2289 58.3153 6.89497 57.9648 6.55729C57.2059 5.74052 56.5057 4.8651 55.6002 4.19499C55.5513 4.15213 55.5062 4.10474 55.4611 4.05737C55.173 3.75729 54.897 3.44441 54.5571 3.19849C54.5044 3.16539 54.454 3.12703 54.4052 3.08868C54.3555 3.05107 54.3097 3.00971 54.2638 2.96684C54.2412 2.94654 54.2194 2.92397 54.1961 2.90366C54.1487 2.86305 54.1043 2.81944 54.06 2.77581C54.0366 2.75475 54.0148 2.73219 53.9923 2.71114C53.8396 2.55395 53.6741 2.41105 53.4967 2.2832C53.4478 2.24484 53.4071 2.19821 53.371 2.14782C53.3011 2.00944 53.2936 1.86279 53.3124 1.71312C53.3192 1.66047 53.3327 1.60783 53.347 1.55743C53.3545 1.51006 53.3613 1.46041 53.3605 1.41153C53.3462 1.3649 53.3289 1.32053 53.3034 1.27841C53.2695 1.2393 53.2364 1.20095 53.2018 1.16259C53.1823 1.14228 53.1657 1.12198 53.1469 1.10168C53.1131 1.05579 53.083 1.00842 53.0537 0.958778C53.0326 0.936966 53.0123 0.915909 52.9912 0.894852C52.8175 0.715103 52.6182 0.563934 52.4467 0.383438L52.4513 0.388695C52.373 0.371399 52.3264 0.318748 52.2926 0.25106L52.2971 0.254822C52.2256 0.219475 52.1737 0.167587 52.1579 0.0863647L52.1782 0.102898C52.1241 0.066803 52.109 0.0404816 52.1339 0.0224304C52.1519 0.00889587 52.1745 0.0021286 52.2008 0.0021286C52.2602 0.0449982 52.3196 0.0434952 52.3783 -0.0001297C52.525 0.0833511 52.7077 0.0134048 52.8514 0.11042Z" fill="#B2B4B3"/>
<path fill-rule="evenodd" clip-rule="evenodd" d="M85.679 42.3405C85.679 43.2069 85.6813 44.0725 85.6783 44.9389C85.6768 45.227 85.664 45.5112 85.5941 45.797C85.5377 46.0272 85.5527 46.2746 85.5407 46.5145C85.5271 46.8018 85.5444 47.0929 85.4399 47.3704C85.4233 47.4148 85.4181 47.4636 85.4128 47.5118C85.3797 47.8209 85.379 48.13 85.2925 48.4384C85.2097 48.7354 85.2443 49.0603 85.1308 49.3574C84.9894 50.6021 84.6216 51.7972 84.3283 53.008C84.0733 54.0594 83.7018 55.077 83.3416 56.0946C83.0934 56.7955 82.7715 57.4701 82.497 58.162C82.2119 58.8788 81.8555 59.5602 81.5178 60.2506C80.7145 61.8954 79.7789 63.4612 78.7561 64.9782C78.165 65.8551 77.5287 66.6982 76.8819 67.5323C76.545 67.967 76.2216 68.4205 75.811 68.7958C75.3108 69.4779 74.6881 70.0472 74.106 70.6542C74.0225 70.7407 73.9352 70.8264 73.8706 70.9264C73.7375 71.1325 73.566 71.2934 73.3659 71.4341C73.229 71.5296 73.111 71.6529 72.9899 71.7695C72.747 72.0027 72.507 72.2396 72.2686 72.4765C71.688 73.0533 71.042 73.5527 70.4193 74.0814C69.8875 74.5327 69.3378 74.9583 68.7827 75.378C67.7283 76.176 66.6355 76.9175 65.5029 77.5997C64.8027 78.0208 64.1093 78.4533 63.391 78.8414C62.5675 79.2873 61.7395 79.7288 60.8693 80.0838C60.7798 80.1199 60.691 80.1567 60.6053 80.1996C59.6366 80.684 58.6221 81.0638 57.6113 81.4428C56.6463 81.8053 55.6664 82.1332 54.6676 82.4025C54.1118 82.5521 53.5628 82.7251 52.9987 82.8462C52.0857 83.0432 51.1847 83.2944 50.2536 83.4088C49.8272 83.4614 49.4098 83.6088 48.9826 83.6397C48.3839 83.6825 47.8011 83.866 47.1949 83.8299C47.0994 83.8239 46.9979 83.8224 46.9076 83.8495C46.4383 83.9901 45.9555 83.9563 45.4756 83.9706C45.1635 83.9796 44.8529 83.9736 44.5453 84.0616C44.3881 84.1059 44.2114 84.0924 44.0437 84.0932C43.3698 84.0962 42.6959 84.0962 42.0221 84.0939C41.7821 84.0939 41.5437 84.0879 41.3061 84.027C41.1459 83.9856 40.9737 83.9826 40.8059 83.9766C40.4698 83.9653 40.1328 83.9668 39.7959 83.957C39.6282 83.9518 39.4522 83.96 39.295 83.9142C39.0122 83.8299 38.7249 83.8352 38.4376 83.8156C38.2474 83.8029 38.0578 83.7683 37.8683 83.7412C37.8209 83.7344 37.7758 83.7103 37.7284 83.7073C37.3449 83.6795 36.9681 83.6133 36.5883 83.5577C36.2566 83.508 35.9264 83.4554 35.5955 83.3982C34.5794 83.2207 33.5732 82.9996 32.5729 82.7529C31.1259 82.3965 29.7037 81.9595 28.2995 81.4661C27.6204 81.2277 26.9548 80.9502 26.284 80.6877C24.7369 80.0815 23.25 79.346 21.782 78.5744C21.081 78.2058 20.3981 77.7997 19.7183 77.3921C18.7909 76.8363 17.8869 76.2422 17.0047 75.6164C16.2421 75.0749 15.4848 74.5244 14.7643 73.925C14.3409 73.5715 13.9039 73.2331 13.476 72.8848C13.3647 72.7938 13.2631 72.6893 13.1578 72.5915C12.8939 72.3464 12.6494 72.0809 12.3433 71.8816C12.2245 71.8041 12.129 71.689 12.0267 71.5875C11.4814 71.0437 10.9309 70.5045 10.3962 69.9517C10.1292 69.6765 9.89379 69.3704 9.63808 69.0838C9.39816 68.8153 9.1432 68.5634 8.92886 68.2693C8.67465 67.9211 8.37081 67.6105 8.10082 67.272C7.72628 66.802 7.36678 66.3222 7.01932 65.8326C6.74105 65.4415 6.46653 65.0474 6.20255 64.6465C5.74077 63.9433 5.30908 63.2221 4.90371 62.485C4.73073 62.1692 4.54196 61.8608 4.37725 61.5412C3.57177 59.9783 2.91068 58.3561 2.38347 56.6789C2.07436 55.6937 1.7976 54.701 1.62537 53.6811C1.47044 53.3209 1.54189 52.9178 1.41103 52.5522C1.40351 52.5312 1.44638 52.4861 1.47421 52.4605C1.48323 52.4522 1.5246 52.4628 1.53813 52.477C1.7051 52.6493 1.89161 52.808 2.02924 53.0012C2.19771 53.2397 2.40152 53.4412 2.59707 53.6533C3.00394 54.0948 3.42586 54.5212 3.81995 54.9762C4.24262 55.4636 4.69538 55.9329 5.22033 56.324C5.48883 56.524 5.7137 56.782 5.95436 57.0174C6.48759 57.5386 7.07798 57.9928 7.64957 58.4696C8.29561 59.0081 8.97925 59.4962 9.64785 60.0047C10.2999 60.5003 10.9828 60.9493 11.677 61.378C12.5757 61.933 13.4963 62.4534 14.4394 62.9333C16.0925 63.7749 17.8042 64.4668 19.5656 65.0444C20.5471 65.3663 21.5406 65.6475 22.5476 65.8694C23.4351 66.0642 24.321 66.2898 25.2325 66.3613C25.58 66.4726 25.9387 66.4944 26.3005 66.5049C26.3953 66.5079 26.49 66.5327 26.584 66.5515C26.678 66.5704 26.7721 66.6155 26.8646 66.6125C27.6603 66.5876 28.4387 66.7862 29.2336 66.7809C30.6528 66.7704 32.0727 66.7779 33.4919 66.7749C33.78 66.7742 34.0658 66.7681 34.3516 66.6959C34.5576 66.6441 34.7802 66.6516 34.9961 66.6425C35.3315 66.6268 35.67 66.6486 35.9949 66.5305C36.061 66.5064 36.137 66.5072 36.2092 66.5042C36.8349 66.4839 37.4419 66.3342 38.0571 66.2394C39.0295 66.0898 39.9899 65.8912 40.9428 65.646C42.2687 65.3046 43.5721 64.8932 44.8499 64.3983C46.1066 63.9117 47.3438 63.3845 48.5314 62.749C49.3361 62.3188 50.137 61.8796 50.8989 61.3742C51.3381 61.0824 51.7924 60.8139 52.2256 60.5093C52.8152 60.0949 53.3936 59.6662 53.9704 59.2353C54.3743 58.9344 54.7406 58.5847 55.1399 58.2771C55.7521 57.8063 56.2771 57.2422 56.8517 56.7316C57.1743 56.4443 57.5112 56.1728 57.8091 55.8584C57.9738 55.6847 58.1219 55.4952 58.2844 55.3184C58.528 55.0529 58.7732 54.7889 59.0252 54.5302C59.5456 53.9963 60.0014 53.4081 60.4767 52.835C60.8761 52.3537 61.2581 51.8611 61.6184 51.3512C61.9922 50.8217 62.3705 50.2937 62.7119 49.7425C63.2045 48.946 63.6813 48.139 64.1333 47.3185C64.4229 46.7935 64.7132 46.2648 64.9147 45.6955C64.9381 45.6278 64.9712 45.5624 65.0028 45.4977C65.7315 44.0033 66.2678 42.4352 66.7671 40.8536C67.0552 39.9383 67.2921 39.0087 67.4854 38.0686C67.5862 37.5752 67.6651 37.0781 67.7764 36.5878C67.899 36.0485 67.896 35.4912 68.0374 34.9557C68.0622 34.864 68.0562 34.7647 68.0607 34.6684C68.0773 34.2849 68.0667 33.9006 68.1788 33.5245C68.2194 33.3899 68.2059 33.238 68.2059 33.0936C68.2066 31.3856 68.2059 29.6769 68.2036 27.9689C68.2036 27.7523 68.1999 27.5364 68.1292 27.3266C68.1066 27.2589 68.0833 27.1852 68.087 27.1153C68.1201 26.5572 67.963 26.0202 67.9141 25.4705C67.8802 25.0899 67.8193 24.7086 67.7433 24.334C67.5944 23.606 67.4365 22.8795 67.2643 22.1575C66.9958 21.0354 66.6423 19.9389 66.2685 18.8484C66.0263 18.1437 65.7458 17.4555 65.4585 16.7673C64.9855 15.6332 64.4169 14.5479 63.8543 13.4582C63.558 12.8828 63.209 12.3338 62.8744 11.778C62.6149 11.3456 62.3599 10.9086 62.0674 10.498C61.4822 9.67743 60.9227 8.83886 60.2744 8.06271C59.766 7.45578 59.2561 6.8496 58.7477 6.24191C57.7572 5.05738 56.617 4.02326 55.5348 2.92973C54.9391 2.5191 54.4901 1.93623 53.89 1.53011C53.7922 1.46393 53.7125 1.36841 53.6327 1.27891C53.6064 1.24883 53.6049 1.19468 53.5981 1.15105C53.5974 1.14655 53.6425 1.12473 53.6628 1.12849C55.5498 1.49852 57.3939 2.02423 59.1989 2.6823C59.9653 2.96208 60.7271 3.25764 61.4619 3.61789C61.9794 3.87209 62.5103 4.09848 63.03 4.34817C63.9197 4.7746 64.7628 5.28677 65.6082 5.79141C66.2467 6.17348 66.8664 6.58788 67.4854 7.00152C68.2036 7.48286 68.9031 7.99051 69.5626 8.55157C69.8183 8.76967 70.0733 8.99153 70.3493 9.18181C70.6885 9.41571 70.9766 9.70376 71.2759 9.98203C71.3992 10.0956 71.5308 10.2009 71.6579 10.3107C71.8219 10.4521 71.9934 10.5844 72.1468 10.7356C72.7131 11.2929 73.2757 11.8532 73.8345 12.4165C74.0714 12.6557 74.3188 12.8843 74.5001 13.1739C74.5625 13.2747 74.6527 13.3604 74.7407 13.4416C75.2191 13.8846 75.6034 14.4126 76.0155 14.9104C76.8887 15.9649 77.6942 17.0727 78.4432 18.2204C79.06 19.1657 79.6383 20.1352 80.1986 21.1159C80.5935 21.8055 80.9394 22.5185 81.3049 23.2217C81.7938 24.1618 82.1992 25.1388 82.5932 26.1195C82.9512 27.01 83.2979 27.9065 83.5882 28.8232C83.9786 30.0589 84.3328 31.3051 84.6367 32.5649C84.8111 33.2861 84.9443 34.0186 85.0789 34.7489C85.1563 35.1731 85.1563 35.6153 85.2722 36.0267C85.4241 36.5659 85.3293 37.133 85.5098 37.6632C85.5399 37.7512 85.5286 37.8543 85.5324 37.9498C85.5489 38.3333 85.5377 38.7177 85.646 39.0952C85.6918 39.2524 85.673 39.4291 85.6753 39.5976C85.6873 40.5121 85.6963 41.4259 85.7061 42.3405C85.6971 42.3405 85.6881 42.3405 85.679 42.3405Z" fill="white"/>
</g>
</svg>
