<svg width="16" height="18" viewBox="0 0 16 18" fill="none" xmlns="http://www.w3.org/2000/svg">
<path fill-rule="evenodd" clip-rule="evenodd" d="M14.7917 9.48332C13.7551 9.97465 12.6277 10.3392 11.7021 10.989C10.1715 12.0668 9.10432 13.5091 9.1878 15.5326C8.53955 16.2511 9.51432 18.264 7.37727 17.7938C7.50143 16.0398 6.7771 14.5023 5.98515 13.0495C5.52551 12.2042 4.74361 11.491 3.98283 10.8728C3.34779 10.3551 2.53259 10.0592 1.79823 9.66297C1.39248 9.11352 0.296747 8.71202 1.40093 7.83501C1.99371 7.5233 2.57802 7.19576 3.18083 6.90519C4.76367 6.13913 5.86787 4.96089 6.44954 3.28084C6.83205 2.18194 7.27265 1.09891 7.68949 7.62939e-06C8.69013 0.554741 8.84281 1.61138 9.10486 2.50952C9.8239 4.97676 11.4009 6.53537 13.7519 7.40709C14.2232 7.58144 14.6934 7.76106 15.1641 7.93541C15.6914 8.0939 15.8932 8.43729 15.7717 8.97089C15.6914 9.20863 15.5313 9.2931 15.2909 9.22442C15.1245 9.31424 14.9581 9.39879 14.7917 9.48332Z" fill="#F6F7F5"/>
</svg>
