<svg width="59" height="72" viewBox="0 0 59 72" fill="none" xmlns="http://www.w3.org/2000/svg">
<path d="M19.2072 32.9528C19.3972 32.763 19.7037 32.7583 19.8989 32.9432L27.7333 40.3689C27.9892 40.6112 28.4113 40.4374 28.4207 40.0851L29.1096 14.3869C29.1187 14.0457 29.3973 13.7747 29.738 13.7747C30.0787 13.7747 30.3574 14.0457 30.3664 14.3869L30.7532 28.7871C30.7612 29.1395 31.1836 29.3148 31.4403 29.0725L37.2144 23.5997C37.3738 23.4482 37.6257 23.4514 37.7819 23.6076C37.9382 23.7639 37.9414 24.0158 37.7899 24.1752L30.9413 31.4016C30.868 31.4797 30.8281 31.5833 30.8297 31.6917L31.2872 48.7623C31.2968 49.1162 31.7193 49.2899 31.9759 49.0476L42.1325 39.4203C42.3955 39.1716 42.81 39.1764 43.0667 39.4331C43.3217 39.6882 43.3281 40.1027 43.0778 40.3657L31.5088 52.5724C31.4355 52.6505 31.3941 52.7557 31.3972 52.8625L31.8962 71.4889C31.9026 71.7185 31.7193 71.9066 31.4897 71.9066H29.738H27.9863C27.7571 71.9066 27.5729 71.7185 27.579 71.4889L28.3305 43.4536C28.3334 43.3452 28.2932 43.2416 28.2189 43.1619L19.1979 33.6446C19.013 33.4501 19.0171 33.1425 19.2072 32.9528Z" fill="#7E592A"/>
<path d="M31.8963 71.4889L31.4961 56.5243C31.4053 56.9484 31.316 57.3724 31.2251 57.7965C30.6005 60.7394 29.9284 63.7858 28.1133 66.1851C27.984 66.3557 27.8463 66.5199 27.7079 66.6841L27.5793 71.4889C27.573 71.7185 27.7572 71.9066 27.9864 71.9066H29.7381H31.4898C31.7193 71.9066 31.9027 71.7185 31.8963 71.4889Z" fill="#6B4725"/>
<path d="M56.1725 14.2085C55.4774 11.9097 53.9023 10.2852 51.6657 9.60767C51.739 9.54071 51.8076 9.46899 51.8714 9.38928C52.4899 8.60016 52.3145 7.42843 52.3145 7.42843C52.3145 7.42843 51.1348 7.53843 50.5163 8.32915C50.4924 8.35944 50.4733 8.38971 50.4525 8.42159C47.8381 4.52859 43.7458 1.64313 39.188 0.528797C34.6956 -0.569595 29.8079 0.0648804 25.728 2.23616C25.9541 1.51081 25.8474 0.796631 25.8474 0.796631C25.8474 0.796631 24.5477 0.91777 23.8649 1.78979C23.6381 1.56182 23.3723 1.35619 23.0635 1.20315C21.6965 0.528809 20.0095 1.15211 20.0095 1.15211C20.0095 1.15211 20.3035 2.10544 21.0185 2.87225C17.3313 3.12891 13.936 4.52383 11.1861 7.22916C7.94843 10.4143 6.09105 14.9434 6.10125 19.4805C6.10332 20.3939 5.78082 21.2707 5.15956 21.9403C3.37583 23.8597 2.2124 26.5698 1.90648 29.2655C1.60119 29.315 1.27407 29.417 0.987911 29.6178C0.168341 30.1981 0 31.3699 0 31.3699C0 31.3699 1.02984 31.5755 1.83442 31.1148C1.85866 31.7461 1.93406 32.3662 2.06526 32.964C2.90013 36.763 5.82881 40.0151 9.48539 41.3128C10.0542 41.5152 10.5573 41.8835 10.8551 42.4096C12.2275 44.8295 14.8492 46.8334 17.5244 47.8808C17.5115 48.2618 17.561 48.7289 17.7974 49.137C18.2999 50.0059 19.4517 50.2801 19.4517 50.2801C19.4517 50.2801 19.7467 49.2869 19.3735 48.4484C22.7546 49.1865 26.4553 48.3224 29.1517 46.1495C30.4956 46.7362 32.2789 46.5529 33.4841 45.7191C34.2636 45.1787 34.9061 44.3385 35.2408 43.4139C35.4848 42.7444 36.2404 42.3984 36.8717 42.7284C40.8141 44.7801 46.0191 44.3146 49.4323 41.426C49.8834 41.045 50.2947 40.6273 50.6709 40.1809C51.2114 40.9302 52.2269 41.1709 52.2269 41.1709C52.2269 41.1709 52.5632 40.0358 52.0611 39.167C52.0435 39.1383 52.0244 39.1112 52.0069 39.0841C52.8071 38.7238 53.2615 37.8757 53.2615 37.8757C53.2615 37.8757 52.8629 37.6334 52.3273 37.5186C53.4448 34.9871 53.6489 32.0538 52.7928 29.4106C52.5186 28.5657 52.8661 27.6299 53.6218 27.166C55.4997 26.015 56.9504 24.1625 57.5722 22.0455C58.3469 19.4071 57.8129 16.4164 56.1725 14.2085Z" fill="#8BAB26"/>
<path d="M57.7243 19.9672C57.3018 21.0959 56.7869 22.1894 56.1843 23.2336C55.2071 24.9282 53.6209 26.3072 52.9943 28.1549C51.6106 32.236 50.5967 35.9568 46.6909 38.4693C42.5476 41.1331 36.7767 38.8821 32.2939 40.9275C29.9477 41.9972 28.27 44.1047 26.2452 45.7021C22.5132 48.6465 17.4278 49.7003 12.7933 48.7199C14.2558 50.5659 16.4113 52.0676 18.6043 52.9269C18.5914 53.3079 18.641 53.775 18.8774 54.1831C19.3799 55.0519 20.5317 55.3261 20.5317 55.3261C20.5317 55.3261 20.8266 54.333 20.4534 53.4944C23.8345 54.2325 27.5352 53.3685 30.2316 51.1956C31.5755 51.7823 33.3588 51.5989 34.564 50.7652C35.3435 50.2248 35.986 49.3846 36.3208 48.46C36.5647 47.7904 37.3203 47.4445 37.9516 47.7745C41.894 49.8262 47.099 49.3607 50.5122 46.4721C50.9633 46.091 51.3746 45.6734 51.7509 45.227C52.2913 45.9763 53.3068 46.217 53.3068 46.217C53.3068 46.217 53.6432 45.0819 53.141 44.2131C53.1235 44.1844 53.1043 44.1573 53.0868 44.1302C53.8871 43.7699 54.3414 42.9218 54.3414 42.9218C54.3414 42.9218 53.9429 42.6795 53.4072 42.5647C54.5247 40.0331 54.7288 37.0998 53.8727 34.4567C53.5985 33.6118 53.9461 32.676 54.7017 32.2121C56.5797 31.0611 58.0304 29.2086 58.6521 27.0916C59.3456 24.7258 58.9853 22.0811 57.7243 19.9672Z" fill="#799C29"/>
</svg>
