<svg width="35" height="64" viewBox="0 0 35 64" fill="none" xmlns="http://www.w3.org/2000/svg">
<g opacity="0.7">
<path d="M33.0438 32.3669C31.6123 30.4523 29.3715 28.9116 29.0454 26.544C28.7561 24.4506 30.1057 22.465 30.1931 20.3553C30.2695 18.5103 29.3743 16.7676 28.2703 15.2788C28.475 15.2023 28.681 15.0918 28.8557 14.9267C29.452 14.3631 29.4534 13.3942 29.4534 13.3942C29.4534 13.3942 28.4859 13.3396 27.8895 13.9032C27.7449 14.0396 27.6371 14.1993 27.5538 14.3644C26.5371 13.1253 25.4359 11.9463 24.6198 10.5694C23.479 8.64929 22.9468 6.43445 22.0324 4.39703C21.3447 2.8618 20.3403 1.3566 18.9702 0.442287C18.0872 -0.147243 16.9136 -0.147243 16.0293 0.442287C14.6592 1.3566 13.6562 2.8618 12.9671 4.39703C12.106 6.31573 11.5833 8.39 10.5748 10.2296C10.3565 9.54313 9.70146 9.09553 9.70146 9.09553C9.70146 9.09553 9.11738 9.85974 9.24702 10.6649C9.24975 10.6813 9.25522 10.6963 9.25795 10.7126C8.54969 10.5694 7.83734 10.9323 7.83734 10.9323C7.83734 10.9323 8.22626 11.8112 8.99456 12.0841C9.08872 12.1169 9.18425 12.1401 9.27842 12.1537C8.49511 13.154 7.62719 14.0956 6.85616 15.1068C5.69621 16.6325 4.7273 18.4393 4.80645 20.3553C4.89515 22.465 6.2448 24.4506 5.95549 26.544C5.62797 28.9116 3.38722 30.4523 1.95706 32.3669C-0.170427 35.2163 -0.503402 39.1752 0.667468 42.5322C0.891271 43.1695 1.16283 43.7863 1.4767 44.3813C1.35798 44.4441 1.24334 44.5232 1.14099 44.6201C0.543274 45.1837 0.543277 46.1526 0.543277 46.1526C0.543277 46.1526 1.51082 46.2072 2.10718 45.6436C2.1331 45.619 2.15629 45.5918 2.18086 45.5658C3.50593 47.576 5.32365 49.279 7.35289 50.5932C10.3374 52.5269 13.7613 53.6814 17.222 54.4975C20.6828 53.6814 24.6635 52.5269 27.6466 50.5932C27.8663 50.4513 28.0833 50.3039 28.2975 50.1524C28.3958 50.2848 28.5145 50.409 28.6578 50.51C29.3265 50.978 30.2681 50.7842 30.2681 50.7842C30.2681 50.7842 30.1276 49.8331 29.4602 49.365C29.437 49.3486 29.4138 49.3363 29.3906 49.3213C31.5973 47.5173 33.3973 45.211 34.3321 42.5322C35.5029 39.1752 35.1713 35.2163 33.0438 32.3669Z" fill="#8BAB26"/>
<path d="M34.3321 42.5322C35.503 39.1752 35.1714 35.2163 33.0439 32.3669C31.6124 30.4523 29.3716 28.9116 29.0455 26.5439C28.7562 24.4506 30.1058 22.465 30.1931 20.3553C30.2136 19.8626 30.1631 19.3782 30.0594 18.9033C30.0116 18.9196 29.9625 18.9333 29.9148 18.951C27.9892 19.6552 26.8088 21.7008 26.5509 23.7341C26.293 25.7688 26.7897 27.8158 27.3151 29.7986C27.8391 31.7815 28.3986 33.8012 28.2649 35.8481C27.9483 40.6995 23.5869 44.6242 18.8242 45.5999C14.0603 46.5757 9.09019 45.11 4.80655 42.8092C3.35729 42.0314 1.82069 41.1321 0.236328 40.9451C0.344136 41.4841 0.487432 42.015 0.667566 42.5322C0.891369 43.1695 1.16293 43.7863 1.4768 44.3813C1.35808 44.4441 1.24344 44.5232 1.14109 44.6201C0.543372 45.1837 0.543375 46.1526 0.543375 46.1526C0.543375 46.1526 1.51092 46.2072 2.10727 45.6436C2.1332 45.619 2.15639 45.5918 2.18096 45.5658C3.50603 47.576 5.32375 49.279 7.35298 50.5932C10.3375 52.5269 13.7614 53.6814 17.2221 54.4975C20.6829 53.6814 24.6636 52.5269 27.6467 50.5932C27.8664 50.4513 28.0834 50.3039 28.2976 50.1524C28.3959 50.2848 28.5146 50.409 28.6579 50.51C29.3266 50.978 30.2682 50.7842 30.2682 50.7842C30.2682 50.7842 30.1277 49.8331 29.4603 49.365C29.4371 49.3486 29.4139 49.3363 29.3907 49.3213C31.5974 47.5173 33.3974 45.211 34.3321 42.5322Z" fill="#799C29"/>
<path d="M26.2684 30.4114C26.1047 30.249 25.8426 30.2449 25.6762 30.4032L18.9689 36.7598C18.7506 36.9672 18.3889 36.8185 18.3807 36.5169L17.7912 14.5187C17.783 14.2267 17.5442 13.9947 17.2535 13.9947C16.9615 13.9947 16.7227 14.2267 16.7159 14.5187L16.3842 26.8456C16.3774 27.1472 16.0158 27.2973 15.7961 27.0899L10.8533 22.405C10.7168 22.2754 10.5012 22.2781 10.3675 22.4118C10.2338 22.5456 10.231 22.7612 10.3607 22.8977L16.2232 29.0836C16.286 29.1505 16.3201 29.2392 16.3187 29.332L15.9271 43.9447C15.9189 44.2476 15.5573 44.3964 15.3376 44.1889L6.64337 35.9478C6.4182 35.7349 6.06339 35.739 5.84369 35.9587C5.62534 36.1771 5.61988 36.5319 5.83413 36.7571L15.7374 47.2062C15.8002 47.2731 15.8343 47.3631 15.8329 47.4546L15.4058 63.3991C15.4003 63.5957 15.5573 63.7567 15.7538 63.7567H17.2535H18.7533C18.9484 63.7567 19.1067 63.5957 19.1013 63.3991L18.4585 39.4004C18.4558 39.3076 18.4899 39.2189 18.554 39.1507L26.2752 31.0037C26.4335 30.8372 26.4308 30.5738 26.2684 30.4114Z" fill="#7E592A"/>
<path d="M18.7533 63.7567C18.9484 63.7567 19.1067 63.5957 19.1012 63.3991L18.7519 50.3872C18.6646 50.8034 18.5759 51.2183 18.4885 51.6331C17.9713 54.0649 17.4159 56.5827 15.9161 58.5642C15.7906 58.7307 15.6569 58.8917 15.5218 59.05L15.4058 63.3991C15.4003 63.5957 15.5573 63.7567 15.7538 63.7567H17.2535H18.7533Z" fill="#6B4725"/>
</g>
</svg>
