<svg width="29" height="35" viewBox="0 0 29 35" fill="none" xmlns="http://www.w3.org/2000/svg">
<path d="M13.2871 1.7627C14.0717 1.03668 15.2613 1.03675 16.0459 1.7627C17.2872 2.9113 20.1051 5.66009 22.6201 9.14844C25.1105 12.6026 27.4336 16.9572 27.4336 21.2861C27.4333 27.897 21.6275 33.0994 14.667 33.0996C7.70636 33.0996 1.90064 27.8971 1.90039 21.2861C1.90039 16.9572 4.22348 12.6026 6.71387 9.14844C9.22882 5.66028 12.0458 2.9113 13.2871 1.7627Z" stroke="#4D57C8" stroke-width="2.2"/>
<path d="M14.6667 27C13.7912 27 12.9243 26.8275 12.1154 26.4925C11.3066 26.1575 10.5717 25.6664 9.95262 25.0473C9.33356 24.4283 8.8425 23.6934 8.50747 22.8845C8.17244 22.0757 8 21.2088 8 20.3333" stroke="#4D57C8" stroke-width="2.2" stroke-linecap="round"/>
</svg>
