<svg width="25" height="35" viewBox="0 0 25 35" fill="none" xmlns="http://www.w3.org/2000/svg">
<path d="M0 1.10162L2.80651 32.3054C2.89235 33.261 7.0496 34.0816 12.0934 34.152C17.1372 34.2225 21.3137 33.519 21.4232 32.5634L25 1.44682L0 1.10162Z" fill="url(#paint0_linear_2_1649)"/>
<g opacity="0.64">
<path opacity="0.64" d="M22.722 7.39279C22.7559 7.36651 22.774 7.34143 22.774 7.31515C22.774 6.88156 18.1638 6.4659 12.4661 6.38706C6.76838 6.30823 2.14582 6.5949 2.13792 7.02968C2.13792 7.05595 2.15486 7.08223 2.18761 7.10851H2.10629L4.44637 31.5541C4.51865 32.3042 7.96101 32.9468 12.1363 33.0054C16.3117 33.0639 19.7687 32.5144 19.8602 31.7667L22.8045 7.39996L22.722 7.39279Z" fill="white"/>
</g>
<path d="M24.9649 1.34719C24.9717 0.793765 19.3975 0.267878 12.5145 0.172583C5.63147 0.0772883 0.0461391 0.448673 0.0392891 1.00209C0.032439 1.55551 5.60667 2.0814 12.4897 2.1767C19.3727 2.27199 24.958 1.90061 24.9649 1.34719Z" fill="#7B6F72"/>
<g opacity="0.51">
<path opacity="0.51" d="M22.8056 7.25188C22.8056 7.64366 18.1503 7.89807 12.4153 7.81924C6.68029 7.74041 2.04531 7.35699 2.04982 6.96521C2.05434 6.57343 6.70513 6.31782 12.4401 6.39785C18.1751 6.47788 22.8135 6.8589 22.8056 7.25188Z" fill="white"/>
</g>
<path d="M10.7619 18.6994C10.8244 17.8371 10.8685 16.9743 10.8941 16.1111C10.9087 15.6333 10.2029 15.5975 10.1882 16.08C10.1648 16.8684 10.1272 17.6563 10.0752 18.4438L8.32697 18.3674C8.34278 17.806 8.35821 17.2454 8.37327 16.6856C8.38569 16.2078 7.67983 16.172 7.66628 16.6545C7.62637 18.107 7.58873 19.5598 7.55334 21.0131C7.53979 21.4909 8.24565 21.5267 8.2592 21.0441C8.27652 20.4015 8.29384 19.7581 8.31115 19.1139L10.0244 19.1892C9.96344 19.9584 9.88815 20.7256 9.79855 21.4909C9.74321 21.9687 10.4491 21.9961 10.5044 21.5219C10.6015 20.6906 10.6821 19.8577 10.7461 19.0231C10.769 18.973 10.7822 18.9186 10.7849 18.863C10.7876 18.8074 10.7798 18.7518 10.7619 18.6994Z" fill="white"/>
<path d="M12.3509 24.2297C12.2944 24.2297 11.8381 24.1819 11.6665 24.1604C11.7615 24.0817 11.8485 23.9929 11.9262 23.8952C11.9928 23.8212 12.064 23.7519 12.1295 23.6755C12.4017 23.3553 12.605 22.9588 12.4977 22.518C12.3068 21.7321 11.2667 21.6819 11.078 22.4953C10.9651 22.9612 11.6427 23.1917 11.7557 22.7235C11.8788 22.7235 11.8844 22.8011 11.7715 22.9528C11.7121 23.0578 11.6391 23.1535 11.5546 23.2371C11.4553 23.3482 11.3491 23.4533 11.2554 23.5703C11.0848 23.7865 10.9165 24.0553 10.9504 24.3515C11.0261 25.0121 11.8765 24.9272 12.326 24.9762C12.7755 25.0252 12.8015 24.2846 12.3509 24.2297Z" fill="white"/>
<path d="M15.5246 16.6712C15.521 16.5837 15.485 16.5011 15.4244 16.4414C15.3637 16.3817 15.2833 16.3497 15.2004 16.3523C14.0146 16.3368 13.4137 18.1954 13.3833 19.2106C13.3482 20.3454 13.87 21.7333 15.118 21.75C16.3434 21.7668 17.0933 20.5496 17.1972 19.3767C17.2875 18.3554 16.5726 16.8564 15.5246 16.6712ZM16.4721 19.5069C16.3592 20.2462 15.8397 21.1086 15.022 20.9939C14.2043 20.8793 14.0462 19.7876 14.0959 19.0972C14.1214 18.7512 14.2023 18.4123 14.3353 18.095C14.4358 17.8561 14.6572 17.3784 14.9305 17.1837C14.9652 17.254 15.0197 17.3113 15.0864 17.3477C15.1531 17.3841 15.2289 17.3977 15.3032 17.3867C15.6849 17.3377 16.1243 17.9839 16.2914 18.2837C16.4884 18.6553 16.5525 19.0894 16.4721 19.5069Z" fill="white"/>
<defs>
<linearGradient id="paint0_linear_2_1649" x1="25" y1="34.1569" x2="-8.40493" y2="32.2019" gradientUnits="userSpaceOnUse">
<stop stop-color="#92A3FD"/>
<stop offset="1" stop-color="#9DCEFF"/>
</linearGradient>
</defs>
</svg>
